<svg xmlns="http://www.w3.org/2000/svg" viewBox="0 0 60 60"><defs><style>.cls-1{fill:#ec6c4d;}.cls-2{fill:#fce5db;}.cls-3{fill:#fce5da;}.cls-4{fill:#f08566;}.cls-5{fill:#f5af95;}.cls-6{fill:#f18c6d;}.cls-7{fill:#e2010f;}.cls-8{fill:#e2000f;}.cls-9{fill:#e52c1e;}.cls-10{fill:#f5ab90;}.cls-11{fill:#f6b298;}.cls-12{fill:#fceae2;}.cls-13{fill:#fbe3d8;}.cls-14{fill:#fce3d8;}.cls-15{fill:#fce9e1;}.cls-16{fill:#f8c6b1;}.cls-17{fill:#ea5a3e;}.cls-18{fill:#f18d6e;}.cls-19{fill:#f8c1ab;}.cls-20{fill:#f8cab7;}.cls-21{fill:#f08869;}.cls-22{fill:#f8c7b3;}.cls-23{fill:#eb6245;}.cls-24{fill:#e7452e;}.cls-25{fill:#f6b59c;}.cls-26{fill:#e20210;}.cls-27{fill:#e20110;}.cls-28{fill:#fefefe;}.cls-29{fill:#e5231e;}.cls-30{fill:#e7372c;}.cls-31{fill:#f29479;}.cls-32{fill:#f4a48b;}.cls-33{fill:#e9533c;}.cls-34{fill:#e63528;}.cls-35{fill:#ea5d40;}.cls-36{fill:#f4a289;}.cls-37{fill:#fbdfd3;}.cls-38{fill:#ea5741;}.cls-39{fill:#e84c35;}.cls-40{fill:#f5ab91;}.cls-41{fill:#e62e23;}.cls-42{fill:#e7412c;}.cls-43{fill:#e7412d;}.cls-44{fill:#e31214;}.cls-45{fill:#f3a084;}.cls-46{fill:#ec6a4d;}.cls-47{fill:#f6b49c;}.cls-48{fill:#f29375;}.cls-49{fill:#ed7458;}.cls-50{fill:#f18c6f;}.cls-51{fill:#ec6346;}</style></defs><title>ic-fabric</title><g id="Layer_2" data-name="Layer 2"><g id="Layer_1-2" data-name="Layer 1"><path class="cls-1" d="M60,30.52V29.43a0,0,0,0,1,0,0v1.09A0,0,0,0,1,60,30.52Z"/><path class="cls-2" d="M60,28.8v-.46h0v.46S60,28.83,60,28.8Z"/><path class="cls-3" d="M60,31.72c0-.16-.05-.32,0-.47v.47Z"/><path class="cls-4" d="M60,30.52h0v.36C59.89,30.77,60,30.64,60,30.52Z"/><path class="cls-5" d="M60,28.8h0v.32s0,0,0,0Z"/><path class="cls-6" d="M60,29.11h0v.31h0Z"/><path class="cls-7" d="M57.39,24.94c0,.17-.2.1-.3.14s-.13-.06-.15-.14a23.17,23.17,0,0,0-.53-2.3c-.16-.54-.32-1.07-.5-1.6-.07-.21.06-.21.18-.26s.19,0,.24.11a30.27,30.27,0,0,1,1.05,4Z"/><path class="cls-7" d="M57.1,35.19c.19,0,.26.06.21.32a31.45,31.45,0,0,1-1.05,3.8c-.06.17-.12.22-.31.15s-.16-.16-.11-.3a27.08,27.08,0,0,0,1-3.78C56.92,35.17,56.92,35.17,57.1,35.19Z"/><path class="cls-7" d="M57.85,29c0,.24,0,.49,0,.73s-.1.18-.23.18-.22,0-.22-.18a27,27,0,0,0-.26-3.6,1.75,1.75,0,0,0-.06-.33c-.06-.21,0-.29.23-.31s.18,0,.2.18C57.68,26.77,57.79,27.88,57.85,29Z"/><path class="cls-7" d="M54.07,44a1.17,1.17,0,0,1-.3-.19c-.06-.06,0-.14.07-.2A26.92,26.92,0,0,0,55.52,40c.07-.16.13-.19.3-.13s.18.15.12.3a30.17,30.17,0,0,1-1.73,3.63C54.17,43.85,54.15,43.92,54.07,44Z"/><path class="cls-7" d="M56.1,20.25c-.06.12-.2.12-.3.16s-.14-.07-.16-.14a26.47,26.47,0,0,0-1.39-3.07,4.45,4.45,0,0,0-.26-.48c-.1-.16-.14-.25.07-.38s.25,0,.31.16A27.82,27.82,0,0,1,56,20Z"/><path class="cls-7" d="M57.84,31.12a33.93,33.93,0,0,1-.37,3.48c0,.17-.09.2-.24.16s-.23,0-.2-.23a25.54,25.54,0,0,0,.37-4c0-.23.14-.16.26-.17s.2,0,.19.19A5.37,5.37,0,0,0,57.84,31.12Z"/><path class="cls-8" d="M59.79,27.2c-.08-.74-.16-1.48-.29-2.21a29.44,29.44,0,0,0-4.38-11.23,31.3,31.3,0,0,0-3.08-4,30.08,30.08,0,0,0-7.41-5.87A29.64,29.64,0,0,0,33.19.27C32.65.21,32.1.2,31.56.12a.26.26,0,0,1-.17,0s0,0,0,0H28.63l0,0a1.44,1.44,0,0,1-.5.1A21.3,21.3,0,0,0,25,.51a29.86,29.86,0,0,0-6.27,1.77A30.23,30.23,0,0,0,11.1,6.81a28.41,28.41,0,0,0-3,2.8A29.84,29.84,0,0,0,.32,26.13a14.78,14.78,0,0,0-.15,1.62.46.46,0,0,1-.1.32h0v.41H0v2h0V31c0,.12.07.25,0,.36v.16c.09.11.05.23.05.36h0a2.65,2.65,0,0,1,.14,1,32.28,32.28,0,0,0,.53,3.39A30,30,0,0,0,9.48,51.77a30.89,30.89,0,0,0,3.32,2.71,30.41,30.41,0,0,0,4,2.39,29.79,29.79,0,0,0,7,2.4,33.52,33.52,0,0,0,3.86.55,3.15,3.15,0,0,1,1,.11l0,0h2.75l.39,0a29.34,29.34,0,0,0,7.26-1.34,29.78,29.78,0,0,0,13.6-9,29.48,29.48,0,0,0,6.85-14.4c.21-1.16.32-2.32.42-3.48.07-.15,0-.32,0-.47v-.37c-.06-.13,0-.26,0-.4V28.79a1.7,1.7,0,0,0,0-.45h0A3.31,3.31,0,0,1,59.79,27.2ZM30,59.37A29.38,29.38,0,1,1,59.39,30,29.37,29.37,0,0,1,30,59.37Z"/><path class="cls-8" d="M59.35,23.81a29.44,29.44,0,0,0-6.86-13.62A29.6,29.6,0,0,0,36.22.68,31.43,31.43,0,0,0,31.38.05h0s0,0,0,0a.26.26,0,0,0,.17,0c.54.08,1.09.09,1.63.15A29.64,29.64,0,0,1,44.63,3.91,30.08,30.08,0,0,1,52,9.78a31.3,31.3,0,0,1,3.08,4A29.44,29.44,0,0,1,59.5,25c.13.73.21,1.47.29,2.21a3.31,3.31,0,0,0,.14,1.13h0A34.24,34.24,0,0,0,59.35,23.81Z"/><path class="cls-8" d="M.05,31.87h0a.88.88,0,0,1,0,.16,28.9,28.9,0,0,0,.84,5.32,30.09,30.09,0,0,0,22.89,22,33.43,33.43,0,0,0,4.87.62h0l0,0a3.15,3.15,0,0,0-1-.11,33.52,33.52,0,0,1-3.86-.55,29.79,29.79,0,0,1-7-2.4,30.41,30.41,0,0,1-4-2.39,30.89,30.89,0,0,1-3.32-2.71A29.7,29.7,0,0,1,.74,36.31a32.28,32.28,0,0,1-.53-3.39,2.65,2.65,0,0,0-.14-1Z"/><path class="cls-8" d="M28.62.05h-.13A30.22,30.22,0,0,0,21,1.4,30,30,0,0,0,.41,25.06c-.17,1-.26,2-.36,3h0a.46.46,0,0,0,.1-.32,14.78,14.78,0,0,1,.15-1.62A29.84,29.84,0,0,1,8.1,9.61a28.41,28.41,0,0,1,3-2.8,30.23,30.23,0,0,1,7.64-4.53A29.86,29.86,0,0,1,25,.51a21.3,21.3,0,0,1,3.1-.34,1.44,1.44,0,0,0,.5-.1l0,0Z"/><path class="cls-9" d="M0,30.44v-1H0v1H0Z"/><path class="cls-9" d="M0,29.45v1h0v-1H0Z"/><path class="cls-10" d="M29.52,0h1a0,0,0,0,1,0,0h-1V0Z"/><path class="cls-10" d="M30.48,0h0Z"/><path class="cls-11" d="M30.48,60h-1v0h1v0Z"/><path class="cls-11" d="M29.52,60h0Z"/><path class="cls-12" d="M30.82,60h0v0h.62v0A3.11,3.11,0,0,1,30.82,60Z"/><path class="cls-12" d="M30.81,60h0a3.11,3.11,0,0,0,.61,0h-.62Z"/><path class="cls-13" d="M28.63.05a2.53,2.53,0,0,1,.55,0h0V0h-.57A.09.09,0,0,1,28.63.05Z"/><path class="cls-13" d="M28.63.05a.09.09,0,0,0,0,0V.05Z"/><path class="cls-13" d="M29.18,0a2.53,2.53,0,0,0-.55,0h.55Z"/><polygon class="cls-13" points="28.62 0.05 28.62 0.05 28.63 0.05 28.63 0.05 28.62 0.05"/><path class="cls-13" d="M29.19,60a2.18,2.18,0,0,1-.51,0,.09.09,0,0,1,0,0h.52v0Z"/><path class="cls-13" d="M28.68,60h0v0A.09.09,0,0,0,28.68,60Z"/><path class="cls-13" d="M29.19,60h-.51A2.18,2.18,0,0,0,29.19,60Z"/><polygon class="cls-13" points="28.68 59.95 28.68 59.95 28.67 59.95 28.68 59.95"/><path class="cls-14" d="M30.86,0a2.18,2.18,0,0,1,.51,0,.09.09,0,0,1,0,0h-.52V0Z"/><path class="cls-14" d="M31.37.05h0V0A.09.09,0,0,0,31.37.05Z"/><path class="cls-14" d="M30.86,0h.51A2.18,2.18,0,0,0,30.86,0Z"/><polygon class="cls-14" points="31.38 0.05 31.38 0.05 31.37 0.05 31.38 0.05"/><path class="cls-15" d="M0,28.48a1.35,1.35,0,0,1,0-.4,0,0,0,0,1,0,0v.41H0Z"/><path class="cls-15" d="M.05,28.08H0A0,0,0,0,0,.05,28.08Z"/><path class="cls-15" d="M0,28.48H0v-.41h0A1.35,1.35,0,0,0,0,28.48Z"/><polygon class="cls-15" points="0.05 28.08 0.05 28.08 0.05 28.07 0.05 28.08"/><path class="cls-16" d="M30.51,0h.33l0,0h-.37S30.51,0,30.51,0Z"/><path class="cls-16" d="M30.84,0h-.33a0,0,0,0,1,0,0h.34Z"/><path class="cls-16" d="M30.51,0s0,0,0,0a0,0,0,0,0,0,0Z"/><path class="cls-16" d="M30.51,0h0A0,0,0,0,0,30.51,0Z"/><path class="cls-16" d="M30.84,0h0V0l0,0Z"/><path class="cls-16" d="M30.84,0h0Z"/><path class="cls-17" d="M0,29.41v-.35H0v.37Z"/><path class="cls-17" d="M0,29.08v.33h0v-.36H0Z"/><path class="cls-17" d="M0,29.41l0,0H0Z"/><path class="cls-17" d="M0,29.43H0Z"/><path class="cls-18" d="M0,31H0v.36A.88.88,0,0,0,0,31Z"/><path class="cls-18" d="M0,31H0a.88.88,0,0,1,0,.36C.11,31.24,0,31.11,0,31Z"/><path class="cls-2" d="M.05,31.87c-.06-.12,0-.25,0-.36v.36A0,0,0,0,1,.05,31.87Z"/><path class="cls-2" d="M.05,31.87a0,0,0,0,0,0,0Z"/><path class="cls-2" d="M.05,31.87h0c0-.13,0-.25,0-.36C.07,31.62,0,31.75.05,31.87Z"/><polygon class="cls-2" points="0.05 31.87 0.05 31.87 0.05 31.87 0.05 31.86 0.05 31.87"/><path class="cls-19" d="M29.21,0h.28V0h-.3S29.21,0,29.21,0Z"/><path class="cls-19" d="M29.49,0h0Z"/><path class="cls-19" d="M29.49,0h0V0h0Z"/><path class="cls-19" d="M29.49,0h0Z"/><path class="cls-19" d="M29.21,0s0,0,0,0V0Z"/><path class="cls-19" d="M29.21,0h0Z"/><path class="cls-20" d="M29.49,60h-.28v0h.3S29.48,60,29.49,60Z"/><path class="cls-20" d="M29.21,60h0Z"/><path class="cls-20" d="M29.49,60s0,0,0,0v0Z"/><path class="cls-20" d="M29.49,60h0Z"/><path class="cls-20" d="M29.21,60h0v0h0Z"/><path class="cls-20" d="M29.21,60h0Z"/><path class="cls-21" d="M0,29.05v-.29H0v.31Z"/><path class="cls-21" d="M0,28.76v.29H0v-.31H0Z"/><path class="cls-21" d="M0,29.05H0Z"/><path class="cls-21" d="M0,29.06H0Z"/><path class="cls-22" d="M30.79,60h-.28v0h.3S30.79,60,30.79,60Z"/><path class="cls-22" d="M30.51,60h0Z"/><path class="cls-22" d="M30.51,60h0v0h0Z"/><path class="cls-22" d="M30.51,60h0Z"/><path class="cls-22" d="M30.79,60s0,0,0,0v0Z"/><path class="cls-22" d="M30.79,60h0Z"/><path class="cls-23" d="M0,31v-.24H0V31S0,31,0,31Z"/><path class="cls-23" d="M0,31s0,0,0,0v-.26H0Z"/><path class="cls-23" d="M0,31H0s0,0,0,0H0Z"/><path class="cls-23" d="M0,31H0s0,0,0,0Z"/><path class="cls-24" d="M0,30.71v-.23s0,0,0,0v.26Z"/><path class="cls-24" d="M0,30.48v.23l0,0v-.26H0Z"/><path class="cls-24" d="M0,30.48H0S0,30.49,0,30.48Z"/><path class="cls-24" d="M0,30.48H0Z"/><path class="cls-24" d="M0,30.72H0l0,0H0Z"/><path class="cls-24" d="M0,30.72h0l0,0Z"/><path class="cls-25" d="M0,28.74v-.23s0,0,0,0v.26Z"/><path class="cls-25" d="M0,28.74a0,0,0,0,1,0,0v-.26H0s0,0,0,0Z"/><path class="cls-25" d="M0,28.51v0H0S0,28.51,0,28.51Z"/><path class="cls-25" d="M0,28.51s0,0,0,0H0Z"/><path class="cls-25" d="M0,28.74H0Z"/><path class="cls-25" d="M0,28.75H0a0,0,0,0,0,0,0Z"/><path class="cls-8" d="M47,51.51c-.11.1-.25.18-.36.29s-.19.09-.31,0a10.68,10.68,0,0,1-3.19-5.4.17.17,0,0,1,.07-.22,5.54,5.54,0,0,0,1.93-2.59c.22-.52.4-1,.66-1.55a2,2,0,0,1,2.38-1.23,1.16,1.16,0,0,1,1.09,1.54c0,.12-.15.29,0,.36s.28,0,.41-.09a1.23,1.23,0,0,0,.58-.61,2,2,0,0,0,.15-1.12,2.23,2.23,0,0,0-1.08-1.65c.07-.17.27-.1.35-.2a2.48,2.48,0,0,1,.44-.36,6.86,6.86,0,0,0,2.78-7,6.71,6.71,0,0,0-4.77-5.26.32.32,0,0,1-.27-.39,7.76,7.76,0,0,0-2-5.58,10.41,10.41,0,0,0-3-2.22,8.49,8.49,0,0,0-7.23-.53A10.86,10.86,0,0,0,31,21.12a.85.85,0,0,1-1.09.34,6.4,6.4,0,0,0-5,.42,6.49,6.49,0,0,0-3.24,4.86c-.08.49-.07.5-.55.6a3.86,3.86,0,0,0-2.79,1.93,4.25,4.25,0,0,0,1.77,5.54c.23.12.22.19.11.39a7.87,7.87,0,0,0-1.11,5.65,9.34,9.34,0,0,0,11.29,7.48c.47-.1.93-.25,1.39-.39C32,49.88,33.39,50.8,35,50.1L34.81,50a3.24,3.24,0,0,1-.9-.65,1,1,0,0,1-.21-1.29A1.61,1.61,0,0,1,35,47.1a3.1,3.1,0,0,1,1.51.17,9,9,0,0,0,1.12.34,4.47,4.47,0,0,0,3.76-.5,9.94,9.94,0,0,0,3.2,6.15c-.27.17-.52.34-.79.48s-.17.16-.09.31.17.16.31.08a30.82,30.82,0,0,0,3.29-2.25c.15-.12.18-.19,0-.35S47.15,51.4,47,51.51ZM20.34,34.64A4.6,4.6,0,0,1,19,29.54,2.67,2.67,0,0,1,20,28.18a8,8,0,0,1,1.36-.7c.13-.06.19-.05.18.11a4,4,0,0,0,0,.48,10.09,10.09,0,0,0,1,4,.27.27,0,0,1-.08.37,12.27,12.27,0,0,0-1.94,2.19C20.5,34.69,20.46,34.74,20.34,34.64ZM44.39,38.2a2.62,2.62,0,0,0-2.76,1.1,5.52,5.52,0,0,0-.88,2l-.06.2c-.11,0-.14-.15-.2-.23a5.69,5.69,0,0,0-1.74-1.68,2.85,2.85,0,0,0-3.31.21,1,1,0,0,0-.32.41,6,6,0,0,1,1,0,3.27,3.27,0,0,1,3,3.24c0,.41,0,.42-.39.47a5.61,5.61,0,0,1-4.29-1.29l-.14-.11h-.06A4.35,4.35,0,0,0,35.72,45a4.89,4.89,0,0,0-1.88.37,3.76,3.76,0,0,0-1.58,1.15,1.21,1.21,0,0,0-.3.54c-.08.4-.34.51-.69.53s-.6.08-.9.12a2.91,2.91,0,0,1-1.76-.31,15.8,15.8,0,0,1-5-3.94,4.33,4.33,0,0,1-.86-1.56h0l-.05.11A5.39,5.39,0,0,0,24,44.82a9.68,9.68,0,0,0,3.8,2.6c.07,0,.23,0,.21.15h0c.12-.13.23,0,.35,0h0l.19.08c-.16,0-.25,0-.34,0s-.15,0-.2-.07h0a6.78,6.78,0,0,1-2.74-1.14,11.47,11.47,0,0,1-4.5-6.51,6.38,6.38,0,0,1,.55-4.35,21.89,21.89,0,0,1,2.44-4l.25-.33h0L24,31.2a14.91,14.91,0,0,0-1.22.95,10,10,0,0,1-.79-3.6,6.74,6.74,0,0,1,.43-2.62A5.14,5.14,0,0,1,24,23.76c.49-.38,1-.73,1.5-1.08a5.58,5.58,0,0,1,5.51-.51,10.23,10.23,0,0,1,2.6,1.6h0l.08-.07a7.76,7.76,0,0,0-2.82-1.91c-.22-.09-.23-.14-.07-.31a10.71,10.71,0,0,1,3.4-2.65A7.55,7.55,0,0,1,40,18.6a15.82,15.82,0,0,1,5.14,2.89A6,6,0,0,1,47.43,26c0,.19,0,.21-.21.18s-.48,0-.62-.09-.09-.39-.14-.59a6.42,6.42,0,0,0-3-4.09.92.92,0,0,0-.45-.17h0s-.1,0-.12.06A5.9,5.9,0,0,1,44.47,23a11.83,11.83,0,0,1,2,4.78h0c.09-.08,0-.21.09-.3,0-.37,0-.73,0-1.09,0-.2.06-.22.22-.19.68.11.69.12.66.81a19.86,19.86,0,0,1-.54,3.51c0,.11,0,.23-.07.36.14,0,.13-.12.15-.18a18.66,18.66,0,0,0,.83-4c0-.2.07-.19.21-.11a6.1,6.1,0,0,1,2.49,2.44,7.06,7.06,0,0,1,1,3.13,11.81,11.81,0,0,1,0,3.41,4.5,4.5,0,0,1-.79,1.82l-.1.16a.2.2,0,0,1-.13.14.2.2,0,0,1,.08-.19l.1-.17h0a8.05,8.05,0,0,0,.69-2.46,7.21,7.21,0,0,0-.67-3.57,6.25,6.25,0,0,0-.48-1h0s0,.06-.06.1,0,0,0,0a6.14,6.14,0,0,1,.57,3.38c-.06.84,0,1.7-.1,2.54A4.67,4.67,0,0,1,50,38.27a2.81,2.81,0,0,1-.9.77c-.07.06-.14,0-.22,0a4.92,4.92,0,0,0-3.54.31,3.57,3.57,0,0,0-1.89,2.42,2,2,0,0,1-.3-1.8c.37-1.11,1.31-1.31,2.4-1.36A4.1,4.1,0,0,0,44.39,38.2Z"/><path class="cls-8" d="M14.34,13.17a1.39,1.39,0,0,0,.32-.9,1.58,1.58,0,0,0-.94-1.35,1.22,1.22,0,0,0-1.44.21c-.56.46-1.07,1-1.61,1.47-.09.08-.11.12,0,.22q1.53,1.62,3,3.27c.08.08.13.09.21,0a4.69,4.69,0,0,1,.46-.42c.13-.11.11-.17,0-.28-.33-.34-.64-.69-1-1-.12-.12-.11-.18,0-.29A8.78,8.78,0,0,0,14.34,13.17Zm-1.52.38c-.07.07-.12.06-.18,0-.25-.27-.49-.54-.74-.8-.07-.07-.09-.11,0-.19a8.34,8.34,0,0,1,.78-.67.59.59,0,0,1,.66,0,.66.66,0,0,1,.36.51.72.72,0,0,1-.17.5A7.71,7.71,0,0,1,12.82,13.55Z"/><path class="cls-8" d="M8.33,27.53a4.54,4.54,0,0,0-3.26-.33,1.21,1.21,0,0,0-.86.9,1.38,1.38,0,0,0,.94,1.77A5.59,5.59,0,0,0,7,30.2a3,3,0,0,0,1-.11,1.32,1.32,0,0,0,1-1.16A1.24,1.24,0,0,0,8.33,27.53Zm-.08,1.28a.43.43,0,0,1-.29.37,1.82,1.82,0,0,1-.69.09,10.05,10.05,0,0,1-1.65-.2A2,2,0,0,1,5.27,29a.49.49,0,0,1-.36-.49A.47.47,0,0,1,5.35,28,1.42,1.42,0,0,1,5.71,28a8.52,8.52,0,0,1,1.88.2,1.37,1.37,0,0,1,.45.18A.45.45,0,0,1,8.25,28.81Z"/><path class="cls-8" d="M9.51,25.34a1.34,1.34,0,0,0-.73-1.68A4.84,4.84,0,0,0,6.18,23a1.41,1.41,0,0,0-.6,2.69,5.66,5.66,0,0,0,2.29.68A1.5,1.5,0,0,0,9.51,25.34Zm-.72-.24a.45.45,0,0,1-.44.34l-.23,0a7.45,7.45,0,0,1-2.22-.62.52.52,0,0,1-.36-.53.45.45,0,0,1,.37-.41,1.88,1.88,0,0,1,.85.06,7.93,7.93,0,0,1,1.44.42,1.85,1.85,0,0,1,.37.19A.45.45,0,0,1,8.79,25.1Z"/><path class="cls-8" d="M38.49,5.54c-.1-.18-.41-.18-.62-.28s-.2,0-.25.1-.15.42-.23.63C37,7.14,36.5,8.28,36.07,9.43c0,.07-.13.17,0,.23a2.21,2.21,0,0,0,.68.24c.15,0,.09-.26.24-.37a1.34,1.34,0,0,0,2.37.42,2.73,2.73,0,0,0,.57-1.29A1.37,1.37,0,0,0,38,7.08l-.06,0c.12-.3.24-.6.34-.9S38.57,5.72,38.49,5.54Zm.07,2.06a.69.69,0,0,1,.45.74,2,2,0,0,1-.37,1,.69.69,0,0,1-.81.31.74.74,0,0,1-.5-.74,1.8,1.8,0,0,1,.43-1.12A.7.7,0,0,1,38.56,7.6Z"/><path class="cls-8" d="M29.39,4.89l1.53,0c.59,0,.58,0,.58-.6,0-.18-.07-.22-.24-.22-.94,0-1.88,0-2.81,0-.18,0-.23.05-.23.24,0,.71,0,1.42,0,2.13h.09c0,.73,0,1.47,0,2.21,0,.15,0,.22.2.2a3.37,3.37,0,0,1,.55,0c.17,0,.22,0,.21-.22,0-.52,0-1,0-1.56,0-.19,0-.27.25-.26.39,0,.78,0,1.17,0,.58,0,.57,0,.57-.6C31.22,6,31.15,6,31,6L29.42,6c-.16,0-.22,0-.22-.2s0-.51,0-.76S29.25,4.89,29.39,4.89Z"/><path class="cls-8" d="M35.5,6.85a.9.9,0,0,0-.66-1,3.14,3.14,0,0,0-1-.18,1.17,1.17,0,0,0-1.2.62c0,.06-.12.13,0,.18l.61.21c.07,0,.09,0,.13,0a.74.74,0,0,1,1-.16.4.4,0,0,1,.19.45c0,.19-.18.15-.3.16-.41.06-.83,0-1.24.11a1,1,0,0,0-.21,1.88A1.42,1.42,0,0,0,34.19,9c.12-.06.2-.09.2.08s.08.24.25.25a3.69,3.69,0,0,1,.46.08c.14,0,.22,0,.17-.16a1.9,1.9,0,0,1,0-.75C35.34,7.94,35.44,7.4,35.5,6.85ZM33.72,8.59a.52.52,0,0,1-.56-.46c0-.25.18-.41.51-.44l.67-.05s.12,0,.14.06A.78.78,0,0,1,33.72,8.59Z"/><path class="cls-8" d="M23.42,8.38q.88-.27,1.77-.51c.14,0,.18-.09.13-.23A4,4,0,0,0,25,7a1.49,1.49,0,0,0-1.79-.69A1.54,1.54,0,0,0,22.1,7.85a2.44,2.44,0,0,0,.13.71,1.61,1.61,0,0,0,2.54,1,1.3,1.3,0,0,0,.65-.89c.07-.29.07-.3-.24-.27a1.55,1.55,0,0,1-.31,0c-.21,0-.36,0-.36.31a.42.42,0,0,1-.17.25.71.71,0,0,1-1.05-.24C23.14,8.49,23.16,8.45,23.42,8.38ZM23,7.61a.67.67,0,0,1,.58-.69.7.7,0,0,1,.74.48c0,.11,0,.15-.1.17l-.92.27C23,7.92,23,7.91,23,7.61Z"/><path class="cls-8" d="M16.06,9.73c-.18-.05-.38.2-.58.29s-.17.16-.08.31c.26.42.49.85.75,1.28a4.86,4.86,0,0,0,.53.83.94.94,0,0,0,1.05.3,1.42,1.42,0,0,0,1-1.17c.28.38.28.38.7.14l.07,0c.17-.07.21-.15.1-.34-.43-.71-.83-1.43-1.25-2.15-.12-.2-.19-.52-.37-.56s-.42.2-.63.31h0c-.11,0-.11.11-.06.2.16.27.32.54.47.81A7.05,7.05,0,0,1,18.32,11a.7.7,0,0,1-.35.86c-.3.15-.55.07-.76-.27s-.52-.88-.79-1.32C16.31,10.08,16.25,9.77,16.06,9.73Z"/><path class="cls-8" d="M46.8,13.57c.17.08.36.32.48.24s.19-.41.19-.64a1.78,1.78,0,0,0-1.84-1.6,2.24,2.24,0,0,0-1.75,1.83A1.7,1.7,0,0,0,46.16,15c.34-.17.34-.16.1-.46-.07-.09-.15-.18-.21-.27s-.16-.16-.3-.06a.56.56,0,0,1-.7,0,.63.63,0,0,1-.28-.73,1.75,1.75,0,0,1,.95-1.08.62.62,0,0,1,.67.13.51.51,0,0,1,.22.6C46.5,13.4,46.62,13.48,46.8,13.57Z"/><path class="cls-8" d="M9,32c0-.19-.07-.23-.25-.21l-4.11.45c-.43,0-.44,0-.37.48,0,.11,0,.27.14.33a1.59,1.59,0,0,1,.94.74.72.72,0,0,0,.9.39c.21,0,.19-.1.11-.24a3.85,3.85,0,0,0-.7-.9c.94-.1,1.83-.2,2.72-.28C9.06,32.73,9.05,32.73,9,32Z"/><path class="cls-8" d="M21,7.08c-.51,0-.78.26-.91.88-.24-.38-.24-.38-.64-.2a1.22,1.22,0,0,1-.17.07c-.17,0-.15.13-.09.27l1.05,2.34c.09.2.12.52.3.57s.41-.16.62-.23.17-.14.1-.29c-.18-.39-.35-.78-.52-1.18a2.49,2.49,0,0,1-.24-.79A.5.5,0,0,1,20.82,8c.13-.06.33,0,.39-.1a1.45,1.45,0,0,0,0-.46.56.56,0,0,1,0-.13C21.19,7.1,21.11,7.07,21,7.08Z"/><path class="cls-8" d="M39.86,11.33a3.21,3.21,0,0,1,.45.24c.14.09.2.07.28-.07.25-.49.52-1,.78-1.44a1.54,1.54,0,0,1,.36-.44.45.45,0,0,1,.68,0c.22.31.35.13.51,0l.23-.21c.05,0,.08-.07.05-.15a.89.89,0,0,0-.93-.42,3.71,3.71,0,0,0-.39.14c.14-.4.14-.4-.25-.61a1.29,1.29,0,0,1-.16-.09c-.12-.09-.18,0-.25.08-.47.9-.95,1.81-1.44,2.7C39.71,11.19,39.7,11.26,39.86,11.33Z"/><path class="cls-8" d="M11.86,19.43a1,1,0,0,0,0-1.16,2,2,0,0,0-1.21-.65,1,1,0,0,0-1,.65.89.89,0,0,0,.18,1.07,2,2,0,0,0,1,.54A.9.9,0,0,0,11.86,19.43Zm-1.72-1c0-.11.14-.14.3-.14a1.93,1.93,0,0,1,1,.52.24.24,0,0,1,0,.29.22.22,0,0,1-.24.15,1.68,1.68,0,0,1-1.06-.54A.21.21,0,0,1,10.14,18.42Z"/><path class="cls-8" d="M8.15,21.16a1,1,0,0,0,0-1.17,2,2,0,0,0-1.22-.66,1,1,0,0,0-1,.63A.92.92,0,0,0,6.09,21a2.12,2.12,0,0,0,1.06.57A.93.93,0,0,0,8.15,21.16Zm-1.73-1A.26.26,0,0,1,6.7,20a1.88,1.88,0,0,1,1,.51.26.26,0,0,1,0,.31c-.06.11-.14.15-.32.14a1.85,1.85,0,0,1-1-.51A.25.25,0,0,1,6.42,20.14Z"/><path class="cls-7" d="M26.76,2.74a25.76,25.76,0,0,1,3.7-.2,26,26,0,0,1,3.64.31c.15,0,.27.06.3-.18s-.07-.24-.23-.26c-.78-.11-1.56-.2-2.35-.25a29.07,29.07,0,0,0-5.11.13c-.19,0-.18.12-.15.25S26.56,2.77,26.76,2.74Z"/><path class="cls-8" d="M10.61,21.89a.44.44,0,0,0,0-.59c-1-1.34-2-2.7-3-4.05-.05-.06-.07-.15-.17-.15l-.21.41a.17.17,0,0,0,0,.23l3.24,4.43A2.13,2.13,0,0,1,10.61,21.89Z"/><path class="cls-8" d="M42,12.55c.05.17.35.27.53.42s.18.08.26,0l1.77-2.53.08-.13c0-.07-.06-.09-.1-.12s-.31-.2-.45-.31-.19-.1-.29.05c-.48.7-1,1.39-1.45,2.08C42.22,12.16,42,12.36,42,12.55Z"/><path class="cls-26" d="M2.64,33.8c.23,0,.18-.15.16-.29-.1-.87-.18-1.75-.21-2.64,0-.43,0-.86,0-1.29,0-.21-.1-.2-.23-.2s-.22,0-.22.19a31.61,31.61,0,0,0,.23,4C2.39,33.77,2.44,33.82,2.64,33.8Z"/><path class="cls-27" d="M35,3A26,26,0,0,1,38.8,4c.19.06.25,0,.32-.15s0-.23-.17-.28a27.83,27.83,0,0,0-3.82-1c-.27-.05-.3,0-.31.26S34.93,3,35,3Z"/><path class="cls-7" d="M50.72,48.09c-.1-.08-.13,0-.18.08A26.91,26.91,0,0,1,47.69,51c-.14.11-.13.18,0,.3s.15.18.3,0a30.11,30.11,0,0,0,2.9-2.86l.11-.12A.88.88,0,0,0,50.72,48.09Z"/><path class="cls-27" d="M33.93,57.17a24.87,24.87,0,0,1-4,.28c-.17,0-.17.09-.17.21s0,.25.17.24h.91c1.07,0,2.12-.15,3.18-.28.18,0,.18-.12.15-.25S34.12,57.14,33.93,57.17Z"/><path class="cls-7" d="M5.72,42.76A26.27,26.27,0,0,1,4.1,39c0-.05,0-.13-.12-.12s-.33.15-.29.28A27.49,27.49,0,0,0,5.33,43c.07.14.14.14.23.06S5.84,43,5.72,42.76Z"/><path class="cls-7" d="M24.31,56.87a27.42,27.42,0,0,1-3.79-1.1c-.18-.07-.24-.05-.31.14s0,.23.16.28a29.29,29.29,0,0,0,3.79,1.09c.27.06.29,0,.31-.25C24.48,56.91,24.48,56.91,24.31,56.87Z"/><path class="cls-7" d="M48.15,8.85,48,8.74a3,3,0,0,0-.24.28c-.06.09,0,.12.09.16A26.63,26.63,0,0,1,50.73,12c.13.16.19.05.28,0s.17-.13,0-.27A28.26,28.26,0,0,0,48.15,8.85Z"/><path class="cls-27" d="M22.09,3.71c.37-.13.76-.23,1.15-.33.88-.22,1.77-.4,2.66-.54.09,0,.26,0,.23-.16s0-.33-.27-.28a33.1,33.1,0,0,0-3.92.88c-.16.05-.19.11-.14.27S21.91,3.77,22.09,3.71Z"/><path class="cls-7" d="M8.81,47.42,8.7,47.3c-.1.09-.2.15-.29.24s0,.12.07.17a27.29,27.29,0,0,0,2.82,3c.12.11.18.09.26,0s.22-.15,0-.31A25.77,25.77,0,0,1,8.81,47.42Z"/><path class="cls-7" d="M19.7,55.46a27,27,0,0,1-3.53-1.75c-.15-.09-.22-.12-.33.07s0,.24.12.32a27.52,27.52,0,0,0,3.53,1.74c.22.09.37,0,.37-.25C19.86,55.52,19.86,55.52,19.7,55.46Z"/><path class="cls-7" d="M39.63,4.28A26.69,26.69,0,0,1,43.23,6c.19.12.23,0,.32-.11s0-.22-.11-.28a28.36,28.36,0,0,0-3.63-1.67l-.16-.07c-.13,0-.11.19-.16.29S39.55,4.25,39.63,4.28Z"/><path class="cls-7" d="M44,6.39a27.93,27.93,0,0,1,3.24,2.25c.05,0,.1.16.18.1a1.72,1.72,0,0,0,.25-.28,1.21,1.21,0,0,0-.16-.16A28.72,28.72,0,0,0,44.22,6c-.11-.07-.21-.14-.3,0S43.8,6.28,44,6.39Z"/><path class="cls-7" d="M43.05,54.15a25.45,25.45,0,0,1-2.41,1.16c-.43.18-.86.34-1.3.51-.1,0-.15.08-.09.18s0,.23.15.26l.09,0a27.82,27.82,0,0,0,3.78-1.7c.17-.09.08-.17,0-.26S43.23,54,43.05,54.15Z"/><path class="cls-7" d="M9.77,11.41c.09,0,.11-.07.15-.11a26,26,0,0,1,2.93-2.72c.15-.12.12-.18,0-.3s-.15-.17-.3,0a28.61,28.61,0,0,0-3,2.76s-.15.1-.09.18A1.13,1.13,0,0,0,9.77,11.41Z"/><path class="cls-7" d="M8.33,46.83a26.61,26.61,0,0,1-2.24-3.4c-.11-.18-.19-.07-.29,0s-.2.08-.1.24A29.28,29.28,0,0,0,8,47.09s.06.15.15.09L8.42,47Z"/><path class="cls-7" d="M4.44,19.47c.12.05.2.09.27-.09a25.36,25.36,0,0,1,1.83-3.6l.06-.11s-.21-.19-.28-.22-.12.05-.15.1A26.38,26.38,0,0,0,4.3,19.22C4.22,19.4,4.32,19.42,4.44,19.47Z"/><path class="cls-7" d="M29.07,57.44A26.07,26.07,0,0,1,25.12,57c-.22,0-.19.08-.23.2s0,.21.15.24a32.55,32.55,0,0,0,3.66.42H29c.13,0,.26,0,.25-.18S29.28,57.44,29.07,57.44Z"/><path class="cls-7" d="M6.65,15.14c.13.07.21.14.32,0a25.9,25.9,0,0,1,2.41-3.19,1.14,1.14,0,0,1,.12-.14l-.27-.24c-.11-.08-.14,0-.18.08a29.81,29.81,0,0,0-2.46,3.25C6.5,15,6.5,15.06,6.65,15.14Z"/><path class="cls-7" d="M51.22,12.62A27.36,27.36,0,0,1,53.55,16c.1.16.17.08.27,0s.22-.08.11-.26a28.34,28.34,0,0,0-2.37-3.37l-.11-.12a2.2,2.2,0,0,0-.28.24C51.11,12.54,51.19,12.58,51.22,12.62Z"/><path class="cls-7" d="M3.83,38.22c-.05-.15-.09-.3-.13-.45a28,28,0,0,1-.77-3.38c0-.08,0-.2-.13-.18s-.34.06-.29.33.13.72.2,1.07a26.37,26.37,0,0,0,.72,2.78c0,.08,0,.19.13.19S3.9,38.45,3.83,38.22Z"/><path class="cls-7" d="M17.45,5.57l.12-.05A25.8,25.8,0,0,1,21.3,4c.17-.06.14-.14.09-.25s0-.25-.22-.18a29.25,29.25,0,0,0-3.83,1.61c-.05,0-.15,0-.08.14S17.33,5.51,17.45,5.57Z"/><path class="cls-7" d="M38.56,56.09a1.39,1.39,0,0,1-.19.06,26.73,26.73,0,0,1-3.63.9c-.08,0-.21,0-.19.15s.06.31.23.28a28.62,28.62,0,0,0,4-1c.17-.06.16-.13.12-.28S38.73,56,38.56,56.09Z"/><path class="cls-7" d="M13.35,8.18l.13-.1a28.2,28.2,0,0,1,3.4-2.2c.15-.08.13-.15.05-.25s-.06-.25-.25-.14a27.08,27.08,0,0,0-3.47,2.25c-.05,0-.14.06-.08.15Z"/><path class="cls-7" d="M15.43,53.26a26.2,26.2,0,0,1-3.24-2.38l-.14-.11a2.83,2.83,0,0,0-.23.28c-.07.1,0,.13.1.17a27.62,27.62,0,0,0,3.27,2.42c.15.1.2,0,.27-.08S15.6,53.36,15.43,53.26Z"/><path class="cls-7" d="M3.05,24.12c.23.06.19-.12.21-.22a27,27,0,0,1,1.13-3.72c.05-.13.11-.23-.1-.3S4.05,19.83,4,20a29.69,29.69,0,0,0-1.15,3.8C2.77,24.06,2.85,24.12,3.05,24.12Z"/><path class="cls-7" d="M2.37,28.93c.12,0,.23,0,.24-.16a25.55,25.55,0,0,1,.47-4c0-.16,0-.22-.17-.24s-.23-.08-.27.14a34.17,34.17,0,0,0-.47,3.76,1.71,1.71,0,0,1,0,.32C2.14,28.93,2.25,28.93,2.37,28.93Z"/><path class="cls-7" d="M53.7,44.25c-.12-.06-.2-.13-.3,0a26,26,0,0,1-2.34,3.28s-.13.09-.06.17a3.45,3.45,0,0,0,.28.23l.13-.14a28.49,28.49,0,0,0,2.37-3.31C53.88,44.36,53.82,44.32,53.7,44.25Z"/><path class="cls-26" d="M45.21,9.48c.22-.31.22-.31-.1-.54s-.42-.28-.73.13c-.17.22-.15.33.09.46a2.74,2.74,0,0,1,.43.3A.12.12,0,0,0,45,9.76Z"/><polygon class="cls-28" points="28.05 47.58 28.05 47.58 28.05 47.58 28.05 47.58"/><path class="cls-29" d="M33.73,23.7l-.08.07a.27.27,0,0,1,.13.05A.27.27,0,0,1,33.73,23.7Z"/><path class="cls-29" d="M34,24a.7.7,0,0,0-.28-.34.27.27,0,0,0,.05.12.27.27,0,0,0-.13-.05h0A.86.86,0,0,0,34,24Z"/><path class="cls-30" d="M50,30.11h0a.83.83,0,0,1,.13.36s0-.08.06-.1C50.11,30.31,50.09,30.2,50,30.11Z"/><path class="cls-30" d="M50,30.11h0a.79.79,0,0,0,.14.37.83.83,0,0,0-.13-.36Z"/><path class="cls-30" d="M50.07,30.1h0c.05.09.07.2.18.26h0A.56.56,0,0,0,50.07,30.1Z"/><path class="cls-31" d="M46.55,27.75c0-.08,0-.17,0-.25-.07.09,0,.22-.09.3C46.55,27.85,46.54,27.79,46.55,27.75Z"/><path class="cls-31" d="M46.51,27.92c.07,0,.06,0,.06-.07V27.5c0,.08,0,.17,0,.25s0,.1-.07.05h0C46.47,27.85,46.46,27.9,46.51,27.92Z"/><polygon class="cls-32" points="28.05 47.57 28.05 47.57 28.05 47.58 28.05 47.57"/><polygon class="cls-32" points="28.05 47.58 28.05 47.58 28.05 47.57 28.05 47.58"/><path class="cls-32" d="M28.4,47.58h0c-.12,0-.23-.14-.35,0,.05.07.13,0,.2.07S28.37,47.64,28.4,47.58Z"/><polygon class="cls-32" points="28.05 47.57 28.05 47.58 28.05 47.58 28.05 47.57 28.05 47.57 28.05 47.57"/><path class="cls-33" d="M22.65,41.74s0,0,0,0,0,.17,0,.25l.05-.11h0a.42.42,0,0,1-.08-.18Z"/><path class="cls-33" d="M22.65,41.73a.42.42,0,0,0,.08.18l-.05-.21Z"/><path class="cls-33" d="M22.66,41.77s0,0,0,0l0,0h0a.47.47,0,0,0,.05.26C22.63,41.94,22.71,41.85,22.66,41.77Z"/><path class="cls-34" d="M42.82,21.2s0,0,.06.07.07-.05.12-.06h0C42.94,21.17,42.88,21.2,42.82,21.2Z"/><path class="cls-34" d="M42.68,21.17a.28.28,0,0,0,.2.1s-.05,0-.06-.07.12,0,.18,0A.39.39,0,0,0,42.68,21.17Z"/><path class="cls-35" d="M28.25,47.64c.09.06.18,0,.34,0l-.19-.08h0C28.39,47.71,28.3,47.63,28.25,47.64Z"/><path class="cls-35" d="M28.25,47.64c.05,0,.14.07.15-.06C28.37,47.64,28.3,47.62,28.25,47.64Z"/><path class="cls-36" d="M50.5,37.73a.2.2,0,0,0,.13-.14l-.05-.05A.2.2,0,0,0,50.5,37.73Z"/><path class="cls-37" d="M50.68,37.37l-.1.17s0,0,.05.05l.1-.16S50.65,37.43,50.68,37.37Z"/><path class="cls-37" d="M50.68,37.37c0,.06,0,.07,0,.06l0-.06Z"/><path class="cls-37" d="M50.58,37.54l.05.05S50.61,37.54,50.58,37.54Z"/><path class="cls-38" d="M24,31.2l.06.06C24.06,31.2,24.06,31.16,24,31.2Z"/><path class="cls-38" d="M24.13,31.1a.18.18,0,0,0-.14.1c.07,0,.07,0,.06.06h0C24.1,31.22,24.16,31.18,24.13,31.1Z"/><path class="cls-8" d="M37.61,28.66l.07-.07h0a3.87,3.87,0,0,0-.4-.41A8.43,8.43,0,0,0,32.16,26a5.68,5.68,0,0,0-4.48,1.57,7.14,7.14,0,0,0-1.33,8.77s0,.14.14.14,0-.17-.07-.24a8.47,8.47,0,0,1-.53-1.71,5.76,5.76,0,0,1,1.55-5.45,11.07,11.07,0,0,1,2.77-1.92,5.14,5.14,0,0,1,4.27-.33A8.85,8.85,0,0,1,37.61,28.66Z"/><path class="cls-27" d="M31.48,40.2h0a1.64,1.64,0,0,1-.78-.32,10.71,10.71,0,0,1-1-.8,6.09,6.09,0,0,1-2.17-3.51c-.05,0,0,.11-.05.17h0A4.51,4.51,0,0,0,29,39a6.81,6.81,0,0,0,1.55,1,1.57,1.57,0,0,0,.67.26C31.29,40.22,31.4,40.27,31.48,40.2Z"/><path class="cls-27" d="M38.88,34.1h0c0-.06,0-.12,0-.18-.31-2.18-1.72-3.35-3.67-4-.09,0-.2,0-.27.05a1.61,1.61,0,0,1,.57.24,7.29,7.29,0,0,1,3.34,4.08c.05,0,0-.11.05-.16Z"/><path class="cls-39" d="M35.19,29.89a1.38,1.38,0,0,0-.64,0v0l.06,0h.31C35,29.81,35.09,29.88,35.19,29.89Z"/><path class="cls-39" d="M35.19,29.89c-.1,0-.2-.08-.27.05C35,29.85,35.1,29.93,35.19,29.89Z"/><path class="cls-40" d="M34.3,29.85h0a.24.24,0,0,0-.24,0,1.3,1.3,0,0,0,.55,0l-.07,0C34.46,29.89,34.37,29.92,34.3,29.85Z"/><path class="cls-40" d="M34.54,29.9l.07,0-.06,0Z"/><path class="cls-41" d="M37.61,28.66a.72.72,0,0,0,.33.25.57.57,0,0,0-.26-.32C37.69,28.65,37.67,28.67,37.61,28.66Z"/><path class="cls-41" d="M37.61,28.66c.06,0,.08,0,.07-.07h0Z"/><path class="cls-42" d="M31.69,40.2h-.21c-.07.14-.18,0-.27,0a1.87,1.87,0,0,0,.58,0l-.1-.09Z"/><path class="cls-42" d="M31.48,40.2c-.08.07-.19,0-.27,0C31.3,40.25,31.41,40.34,31.48,40.2Z"/><path class="cls-43" d="M27.57,35.57l-.05-.31-.05.05a1.06,1.06,0,0,0,.05.43C27.52,35.67,27.45,35.59,27.57,35.57Z"/><path class="cls-43" d="M27.57,35.57c-.12,0-.05.1-.05.17h0C27.54,35.68,27.52,35.61,27.57,35.57Z"/><path class="cls-44" d="M38.93,34.41h0a.84.84,0,0,0,0-.31c0,.06.07.14-.05.16l.05.26,0-.11Z"/><path class="cls-44" d="M38.88,34.1h0s0,.12-.05.16C39,34.24,38.89,34.16,38.88,34.1Z"/><path class="cls-45" d="M31.69,40.2h0s.13,0,.1.09a.53.53,0,0,0,.3,0A.65.65,0,0,0,31.69,40.2Z"/><path class="cls-45" d="M31.69,40.2l.1.09C31.82,40.18,31.71,40.24,31.69,40.2Z"/><path class="cls-46" d="M39,34.67h0c0-.08,0-.18-.06-.26s0,.11,0,.11l0,.26.06-.11Z"/><path class="cls-46" d="M38.93,34.41h0l0,.11C39,34.52,39,34.46,38.93,34.41Z"/><path class="cls-47" d="M38.93,34.78A.27.27,0,0,0,39,35a.55.55,0,0,0,0-.34S39,34.79,38.93,34.78Z"/><path class="cls-47" d="M39,34.67h0l-.06.11C39,34.79,39,34.72,39,34.67Z"/><path class="cls-48" d="M27.52,35.26,27.47,35h0c0,.11,0,.22,0,.32C27.45,35.26,27.47,35.24,27.52,35.26Z"/><path class="cls-48" d="M27.47,35.31l.05-.05C27.47,35.24,27.45,35.26,27.47,35.31Z"/><path class="cls-49" d="M50,30l0,.08h0S50,30,50,30Z"/><path class="cls-49" d="M50,30s0,.05,0,.07h0a.35.35,0,0,0-.19-.27c.06.12,0,.22.14.27h0Z"/><path class="cls-49" d="M50,30.1h0v0Z"/><path class="cls-49" d="M50,30.1h0Z"/><path class="cls-49" d="M50,30.09v0h0Z"/><path class="cls-50" d="M22.64,41.67v0h0A0,0,0,0,1,22.64,41.67Z"/><path class="cls-50" d="M22.64,41.7v0a0,0,0,0,0,0,0h0a.18.18,0,0,0-.08-.18.26.26,0,0,0,0,.24S22.62,41.71,22.64,41.7Z"/><path class="cls-50" d="M22.65,41.7h0s0,0,0,0h0Z"/><path class="cls-50" d="M22.65,41.7v0h0l0,0Z"/><path class="cls-50" d="M22.65,41.74s0,0,0,0,0,0,0,.06h0Z"/><path class="cls-14" d="M27.47,35s0-.1,0-.14l-.05,0a.07.07,0,0,0,0,.1S27.46,35,27.47,35Z"/><path class="cls-14" d="M27.43,35h0S27.44,35,27.43,35Z"/><path class="cls-51" d="M34.54,29.89s0,0,0,0H34.3C34.37,29.9,34.46,29.84,34.54,29.89Z"/><path class="cls-51" d="M34.54,29.89h0v0S34.53,29.87,34.54,29.89Z"/><path class="cls-51" d="M34.54,29.9h0c-.08-.05-.17,0-.24,0h0C34.37,29.92,34.46,29.89,34.54,29.9Z"/><path class="cls-51" d="M34.54,29.9Z"/></g></g></svg>