<svg xmlns="http://www.w3.org/2000/svg" viewBox="0 0 60 60"><defs><style>.cls-1{fill:#e2000f;}.cls-2{fill:#f08869;}.cls-3{fill:#e8442d;}.cls-4{fill:#e4281c;}.cls-5{fill:#f39a7c;}.cls-6{fill:#fceae1;}.cls-7{fill:#fceae3;}.cls-8{fill:#fceae2;}.cls-9{fill:#fce6dc;}.cls-10{fill:#fcebe3;}.cls-11{fill:#fce9e0;}.cls-12{fill:#fce5db;}.cls-13{fill:#f7bea7;}.cls-14{fill:#e94e35;}.cls-15{fill:#eb6245;}.cls-16{fill:#ee7d5d;}.cls-17{fill:#f4a487;}.cls-18{fill:#f5b096;}.cls-19{fill:#e84931;}.cls-20{fill:#f4a488;}.cls-21{fill:#f5ab91;}.cls-22{fill:#ec6e4f;}.cls-23{fill:#f29577;}.cls-24{fill:#f9c9b5;}.cls-25{fill:#f9cdba;}.cls-26{fill:#f08b6c;}.cls-27{fill:#f7b9a2;}.cls-28{fill:#f9c8b4;}.cls-29{fill:#fefefe;}.cls-30{fill:#e95254;}.cls-31{fill:#e63b2c;}.cls-32{fill:#e74149;}.cls-33{fill:#e84149;}.cls-34{fill:#ee7558;}.cls-35{fill:#e41920;}.cls-36{fill:#f5af9c;}.cls-37{fill:#e73834;}.cls-38{fill:#f6b8a3;}.cls-39{fill:#fbe1d9;}.cls-40{fill:#fad3c9;}.cls-41{fill:#f9d2c8;}.cls-42{fill:#f3a087;}.cls-43{fill:#fad9d2;}.cls-44{fill:#ef7e65;}.cls-45{fill:#ee775f;}.cls-46{fill:#e8444b;}.cls-47{fill:#e8493b;}.cls-48{fill:#e52923;}</style></defs><title>ic-globle_1</title><g id="Layer_2" data-name="Layer 2"><g id="Layer_1-2" data-name="Layer 1"><path class="cls-1" d="M47.75,14.88a19.81,19.81,0,0,0-7-7.92.47.47,0,0,0-.32-.19l-.06-.06a.44.44,0,0,0-.29-.19L40,6.5l-.12-.11c-.07-.07-.13-.14-.25-.08V6.23a.24.24,0,0,0-.19-.1A13.78,13.78,0,0,0,37.08,5a4.12,4.12,0,0,0-.89-.32,2.36,2.36,0,0,0-.64-.19l-.63-.14a20.65,20.65,0,0,0-7.47-.49A15.44,15.44,0,0,0,25,4.35a2.84,2.84,0,0,0-.57.16A8.66,8.66,0,0,0,23,5l-.44.17a19.48,19.48,0,0,0-5.07,3l-.14,0c-.06,0-.1-.12-.16-.17s-.18-.21,0-.32.34-.27.52-.39.18-.16,0-.28a6.65,6.65,0,0,1-.65-.65c-.15-.19-.26-.15-.42,0A21.68,21.68,0,0,0,8.47,28.34,21.41,21.41,0,0,0,21.73,44a20.61,20.61,0,0,0,7.19,1.52c.19,0,.26.05.23.25-.07.62-.12,1.24-.17,1.86-.12,1.36-.24,2.73-.35,4.09l-.05.16-3.3,0a.59.59,0,0,0-.57.62,2.72,2.72,0,0,1,0,.57H19.84a1.57,1.57,0,0,0-1.58,1.58c0,.41,0,.82,0,1.23s0,.35.34.35H41.18c.14,0,.19,0,.18-.17,0-.48,0-1,0-1.44a1.57,1.57,0,0,0-1.62-1.55H34.94a1.38,1.38,0,0,1,0-.61.57.57,0,0,0-.54-.58l-3.35,0-.51-5.81c0-.54-.06-.53.46-.56a21.54,21.54,0,0,0,11.38-3.91,21.82,21.82,0,0,0,5-4.81c.1-.14.1-.21,0-.32s-.48-.46-.71-.7-.15-.14-.24,0-.31.4-.46.61-.14.11-.23,0l-.36-.34c0-.13.07-.19.13-.27A19.62,19.62,0,0,0,49,28.58a.28.28,0,0,0,.15-.26,3.59,3.59,0,0,0,.18-1.18c0-.26.16-.47.19-.72.09-.62.15-1.25.18-1.88A19.56,19.56,0,0,0,47.75,14.88ZM45.14,37.19a20.94,20.94,0,0,1-2.4,2.31,20.71,20.71,0,0,1-5.88,3.37A21.38,21.38,0,0,1,30,44.14,18.6,18.6,0,0,1,27.27,44a20.26,20.26,0,0,1-12.84-6.85A19.84,19.84,0,0,1,11.17,32a20.73,20.73,0,0,1-1.76-7.56A19.18,19.18,0,0,1,9.59,21a20.21,20.21,0,0,1,2.32-7.08,20.66,20.66,0,0,1,4.34-5.45c.2-.18.3-.25.5,0a.17.17,0,0,0,.1.06.11.11,0,0,0,0,.08h0a6.39,6.39,0,0,0-.68.59c-.09.09-.24.16-.24.32a.43.43,0,0,0-.26.17,18.62,18.62,0,0,0-1.77,2.09.48.48,0,0,0-.1.23c-.06,0-.09.06-.13.11a16.28,16.28,0,0,0-.91,1.42c0,.05-.08.11,0,.18-.12,0-.16.12-.21.22a19.6,19.6,0,0,0-1.22,2.63A20.48,20.48,0,0,0,10,23a20.17,20.17,0,0,0,.09,2.33,18.5,18.5,0,0,0,.9,4.35,19.51,19.51,0,0,0,3.27,6.09,18.2,18.2,0,0,0,1.61,1.79l.09,0h0a.91.91,0,0,0,.17.17h0c0,.17.17.26.28.37a22.15,22.15,0,0,0,3.16,2.38,20.25,20.25,0,0,0,4.2,1.94,18.25,18.25,0,0,0,3.66.8,6.9,6.9,0,0,0,1.87.1h.23c.24,0,.49,0,.73,0h.23a5.64,5.64,0,0,0,1.48,0,20.38,20.38,0,0,0,3.19-.6,20.08,20.08,0,0,0,6.22-2.94,22.82,22.82,0,0,0,2.4-2,12.3,12.3,0,0,0,1.09-1.19,1,1,0,0,0,.26.31C45.25,37,45.24,37.07,45.14,37.19Z"/><path class="cls-1" d="M60,31.06v-2a3.19,3.19,0,0,0,0-.62,1.13,1.13,0,0,1,0-.18,28.11,28.11,0,0,0-.79-5.33A29.64,29.64,0,0,0,48.19,6.19,29.24,29.24,0,0,0,34.83.41C33.77.23,32.7.14,31.63.05a1.83,1.83,0,0,0-.47,0H28.84a1.48,1.48,0,0,0-.42,0l-.1,0A30,30,0,0,0,.41,25c-.17,1-.26,2-.36,3a1.35,1.35,0,0,0,0,.4v.27s0,0,0,0,0,.18,0,.26v.16a.51.51,0,0,1,0,.3v0a.08.08,0,0,0,0,0v1.35s0,0,0,0,0,0,0,0a.82.82,0,0,1,0,.35v.31c.07.14,0,.29.05.42s0,.18,0,.26a27.47,27.47,0,0,0,.78,4.94,29.66,29.66,0,0,0,9.8,15.74,29.48,29.48,0,0,0,14.4,6.66c1,.17,2,.27,3,.36.14.07.29,0,.42,0h.11A.42.42,0,0,1,29,60h.16a.82.82,0,0,1,.35,0h1.45a.61.61,0,0,1,.3,0h.15c.17-.07.36,0,.53,0l.28,0a28,28,0,0,0,5-.78A30,30,0,0,0,59.59,34.8c.18-1.08.27-2.18.36-3.28A1.78,1.78,0,0,0,60,31.06ZM30,59.53A29.53,29.53,0,1,1,59.52,30,29.51,29.51,0,0,1,30,59.53Z"/><path class="cls-2" d="M30.58,0H29.42s0,0,0,0h1.17s0,0,0,0A0,0,0,0,1,30.58,0Z"/><path class="cls-3" d="M29.47,60h1.11a0,0,0,0,1,0,0H29.48s0,0,0,0Z"/><path class="cls-4" d="M.05,29.47v1.06s0,0,0,0v-1S0,29.45.05,29.47Z"/><path class="cls-5" d="M60,30.47v-1a0,0,0,0,1,0,0v1S60,30.5,60,30.47Z"/><path class="cls-6" d="M60,29.05v-.62h0v.63S60,29.08,60,29.05Z"/><path class="cls-7" d="M31.36,60a1,1,0,0,1,.53,0v0Z"/><path class="cls-8" d="M31.63.05h-.47s0,0,0,0V0h.48Z"/><path class="cls-9" d="M60,31.52v-.47s0,0,0,0v.47Z"/><path class="cls-10" d="M0,31.57c.1.13.05.28.05.42H0Z"/><path class="cls-11" d="M28.11,60c.14,0,.29-.05.42,0h-.42Z"/><path class="cls-8" d="M.05,28.06v.42s0,0,0,0v-.42Z"/><path class="cls-12" d="M28.84,0h-.41V0h.42s0,0,0,0S28.85,0,28.84,0Z"/><path class="cls-13" d="M60,29.05h0v.36h0Z"/><path class="cls-14" d="M0,30.52H.05v.37s0,0,0,0Z"/><path class="cls-15" d="M29.47,60s0,0,0,0h-.37C29.22,59.89,29.35,60,29.47,60Z"/><path class="cls-16" d="M0,30.89H.05c0,.12.06.25,0,.36Z"/><path class="cls-17" d="M29.42,0V0h-.31s0,0,0,0h.33Z"/><path class="cls-18" d="M60,30.47h0v.32a0,0,0,0,1,0,0Z"/><path class="cls-19" d="M.05,29.47H0v-.32C.1,29.25,0,29.37.05,29.47Z"/><path class="cls-20" d="M28.64,60A.22.22,0,0,1,29,60Z"/><path class="cls-21" d="M30.58,0V0h.31s0,0,0,0h-.33Z"/><path class="cls-22" d="M30.58,60v0h.32a0,0,0,0,1,0,0h-.33Z"/><path class="cls-23" d="M30.89,60a.06.06,0,0,1,0,0c.1,0,.22-.07.31,0Z"/><path class="cls-24" d="M29.11,0V0h-.27a.06.06,0,0,0,0,0Z"/><path class="cls-25" d="M60,30.79h0v.26h0Z"/><path class="cls-26" d="M0,28.74c0,.09,0,.19,0,.26v-.26A0,0,0,0,1,0,28.74Z"/><path class="cls-27" d="M0,28.74H0v-.26H0Z"/><path class="cls-28" d="M30.89,0V0h.26a.06.06,0,0,0,0,0Z"/><path class="cls-29" d="M47.75,14.88a19.81,19.81,0,0,0-7-7.92.47.47,0,0,0-.32-.19l-.06-.06a.44.44,0,0,0-.29-.19L40,6.5l-.12-.11c-.07-.07-.13-.14-.25-.08V6.23a.24.24,0,0,0-.19-.1A13.78,13.78,0,0,0,37.08,5a4.12,4.12,0,0,0-.89-.32,2.36,2.36,0,0,0-.64-.19l-.63-.14a20.65,20.65,0,0,0-7.47-.49A15.44,15.44,0,0,0,25,4.35a2.84,2.84,0,0,0-.57.16A8.66,8.66,0,0,0,23,5l-.44.17a19.48,19.48,0,0,0-5.07,3l-.14,0c-.06,0-.1-.12-.16-.17s-.18-.21,0-.32.34-.27.52-.39.18-.16,0-.28a6.65,6.65,0,0,1-.65-.65c-.15-.19-.26-.15-.42,0A21.68,21.68,0,0,0,8.47,28.34,21.41,21.41,0,0,0,21.73,44a20.61,20.61,0,0,0,7.19,1.52c.19,0,.26.05.23.25-.07.62-.12,1.24-.17,1.86-.12,1.36-.24,2.73-.35,4.09l-.05.16-3.3,0a.59.59,0,0,0-.57.62,2.72,2.72,0,0,1,0,.57H19.84a1.57,1.57,0,0,0-1.58,1.58c0,.41,0,.82,0,1.23s0,.35.34.35H41.18c.14,0,.19,0,.18-.17,0-.48,0-1,0-1.44a1.57,1.57,0,0,0-1.62-1.55H34.94a1.38,1.38,0,0,1,0-.61.57.57,0,0,0-.54-.58l-3.35,0-.51-5.81c0-.54-.06-.53.46-.56a21.54,21.54,0,0,0,11.38-3.91,21.82,21.82,0,0,0,5-4.81c.1-.14.1-.21,0-.32s-.48-.46-.71-.7-.15-.14-.24,0-.31.4-.46.61-.14.11-.23,0l-.36-.34c0-.13.07-.19.13-.27A19.62,19.62,0,0,0,49,28.58a.28.28,0,0,0,.15-.26,3.59,3.59,0,0,0,.18-1.18c0-.26.16-.47.19-.72.09-.62.15-1.25.18-1.88A19.56,19.56,0,0,0,47.75,14.88ZM45.14,37.19a20.94,20.94,0,0,1-2.4,2.31,20.71,20.71,0,0,1-5.88,3.37A21.38,21.38,0,0,1,30,44.14,18.6,18.6,0,0,1,27.27,44a20.26,20.26,0,0,1-12.84-6.85A19.84,19.84,0,0,1,11.17,32a20.73,20.73,0,0,1-1.76-7.56A19.18,19.18,0,0,1,9.59,21a20.21,20.21,0,0,1,2.32-7.08,20.66,20.66,0,0,1,4.34-5.45c.2-.18.3-.25.5,0a.17.17,0,0,0,.1.06.11.11,0,0,0,0,.08h0a6.39,6.39,0,0,0-.68.59c-.09.09-.24.16-.24.32a.43.43,0,0,0-.26.17,18.62,18.62,0,0,0-1.77,2.09.48.48,0,0,0-.1.23c-.06,0-.09.06-.13.11a16.28,16.28,0,0,0-.91,1.42c0,.05-.08.11,0,.18-.12,0-.16.12-.21.22a19.6,19.6,0,0,0-1.22,2.63A20.48,20.48,0,0,0,10,23a20.17,20.17,0,0,0,.09,2.33,18.5,18.5,0,0,0,.9,4.35,19.51,19.51,0,0,0,3.27,6.09,18.2,18.2,0,0,0,1.61,1.79l.09,0h0a.91.91,0,0,0,.17.17h0c0,.17.17.26.28.37a22.15,22.15,0,0,0,3.16,2.38,20.25,20.25,0,0,0,4.2,1.94,18.25,18.25,0,0,0,3.66.8,6.9,6.9,0,0,0,1.87.1h.23c.24,0,.49,0,.73,0h.23a5.64,5.64,0,0,0,1.48,0,20.38,20.38,0,0,0,3.19-.6,20.08,20.08,0,0,0,6.22-2.94,22.82,22.82,0,0,0,2.4-2,12.3,12.3,0,0,0,1.09-1.19,1,1,0,0,0,.26.31C45.25,37,45.24,37.07,45.14,37.19Z"/><path class="cls-30" d="M44,29.89s0,0,0,0a0,0,0,0,0,0,0,8.46,8.46,0,0,1-.66,1.31,19.18,19.18,0,0,1-13.6,9.42,18.68,18.68,0,0,1-3.58.23,19.12,19.12,0,0,1-9.91-3.14l-.06-.05,0,0,0,0,0,0h0a.83.83,0,0,0-.15-.11h0l-.09,0a18.2,18.2,0,0,1-1.61-1.79A19.51,19.51,0,0,1,11,29.63a18.5,18.5,0,0,1-.9-4.35A20.17,20.17,0,0,1,10,23a20.48,20.48,0,0,1,1.25-6.38,19.6,19.6,0,0,1,1.22-2.63c0-.1.09-.2.21-.22h0c.3.12.57.27.86.42a.79.79,0,0,0,.6.08.86.86,0,0,1,1,.36,1.08,1.08,0,0,0,.84.48,1.22,1.22,0,0,1,1.06.82,2.27,2.27,0,0,0,.8.91,4.8,4.8,0,0,0,.54.32c.13.07.23.07.28-.09a.36.36,0,0,1,.31-.29c.18,0,.26.13.33.26a1.85,1.85,0,0,1-.06,2.25l-.22.29a1,1,0,0,0-.19,1.1.52.52,0,0,1,0,.54.66.66,0,0,0,.09.82,4.54,4.54,0,0,1,.93,1.38c.21.38.39.79.6,1.17a2.42,2.42,0,0,0,1,1l.14.07A1.67,1.67,0,0,1,22.65,27c.05.46.11.93.12,1.4a12.74,12.74,0,0,0,.31,2.68,5.54,5.54,0,0,1,.06,1.41,1.82,1.82,0,0,0,.18.86,5.16,5.16,0,0,1,.23.94,1.53,1.53,0,0,0,.1.38c.09-.05.17-.17.29-.08s.09.21.08.33a1,1,0,0,1-.05.24,1.17,1.17,0,0,0,.12,1.07.68.68,0,0,1,.07.2,3.44,3.44,0,0,0,2.37,2.47,1.08,1.08,0,0,0,.59.06c.09,0,.17-.06.17-.17s-.06-.13-.15-.15a1.92,1.92,0,0,1-1.05-.93.51.51,0,0,1,0-.48c.06-.19.11-.39.16-.58a.36.36,0,0,0-.21-.47c-.35-.19-.38-.28-.18-.63a3.28,3.28,0,0,0,.24-.75.17.17,0,0,0-.1-.21c-.12-.07-.22-.17-.18-.31s.15-.17.26-.18.21-.11.22-.27c0-.43,0-.44.45-.53l.2,0c.42-.13.52-.36.34-.76a2.4,2.4,0,0,0-.23-.38c0-.08-.11-.16-.05-.24s.14,0,.22,0h.41a.45.45,0,0,0,.47-.32c.07-.2.12-.42.2-.62a3.06,3.06,0,0,1,.35-.64,1.6,1.6,0,0,0,.3-1.22.76.76,0,0,1,.43-.86,2.66,2.66,0,0,1,.8-.33,1,1,0,0,0,.71-.67,4.37,4.37,0,0,0,.27-1.43c0-.3,0-.6,0-.89a1.57,1.57,0,0,1,.23-.85c.16-.27.35-.53.51-.79A1.26,1.26,0,0,0,32,21.93a.45.45,0,0,0-.31-.26,1.18,1.18,0,0,1-.59-.32,1.84,1.84,0,0,0-1.2-.51,1.07,1.07,0,0,1-.77-.33,1,1,0,0,0-.66-.31,1,1,0,0,1-.9-.76,4.34,4.34,0,0,0-.33-.8,1.18,1.18,0,0,0-1.09-.74,1.22,1.22,0,0,1-.94-.38,8.49,8.49,0,0,1-1-1,.74.74,0,0,0-.76-.25A1.88,1.88,0,0,1,22,15.91a.25.25,0,0,0-.36,0c-.13.11-.23.09-.31-.07s-.17-.17-.31-.08a.8.8,0,0,1-.16.08,1,1,0,0,0-.79.72c-.13.33-.31.36-.6.18a.67.67,0,0,0-.58-.08c-.76.23-1.28-.22-1.16-1,0-.26.05-.51.08-.76s-.08-.46-.42-.5a5,5,0,0,0-.55,0c-.38,0-.5-.17-.39-.54s.2-.5.26-.77a1.37,1.37,0,0,0,.05-.28c0-.14.05-.3-.12-.37a.43.43,0,0,0-.48.11.77.77,0,0,0-.19.31,1,1,0,0,1-.95.69,1.15,1.15,0,0,1-1-.74,2.74,2.74,0,0,1-.18-.75h0v0a.48.48,0,0,1,.1-.23,18.62,18.62,0,0,1,1.77-2.09.43.43,0,0,1,.26-.17h0a.7.7,0,0,0,.75-.17.71.71,0,0,1,.63-.15c.27.06.54.14.82.19a.4.4,0,0,1,.36.41,1.86,1.86,0,0,0,.05.34.51.51,0,0,0,.44.34c.12,0,.11-.1.1-.17,0-.25-.06-.51-.11-.75a.86.86,0,0,1,.27-.9,4.25,4.25,0,0,1,1.1-.83,2.12,2.12,0,0,0,.35-.23.45.45,0,0,0,.24-.46.81.81,0,0,1,.32-.75,3.72,3.72,0,0,1,1.54-1c.18,0,.19-.21.2-.36a8.66,8.66,0,0,1,1.47-.47c.24.11.4,0,.57-.16a15.44,15.44,0,0,1,2.44-.46,20.65,20.65,0,0,1,7.47.49l.63.14a1.9,1.9,0,0,0,.63.23l.08,0h0a6.37,6.37,0,0,1,.72.29h0A1.63,1.63,0,0,1,37,6a1.34,1.34,0,0,0,0,.49c.05.22.13.37.4.4s.45.26.41.59a.88.88,0,0,1-.47.66,1.14,1.14,0,0,0-.64,1,1.1,1.1,0,0,1-.54.86A2.75,2.75,0,0,0,35,11.35a5.18,5.18,0,0,1-.4.73.47.47,0,0,0-.06.4,3.19,3.19,0,0,1,0,1.86,2.52,2.52,0,0,0-.1.46,1.06,1.06,0,0,0,.26.9c.19.2.35.41.55.6a1,1,0,0,1,.29.49,1.21,1.21,0,0,0,.44.6c.29.23.58.45.86.69a.38.38,0,0,0,.45.07A1.76,1.76,0,0,1,38.37,18a1.09,1.09,0,0,0,.83-.13,3.85,3.85,0,0,1,.69-.31.74.74,0,0,1,1,.39.42.42,0,0,0,.47.25h.1c.65,0,.79.16.77.8a8.87,8.87,0,0,1-.17,1,.65.65,0,0,0,.18.62,3.57,3.57,0,0,1,1,2.15,5,5,0,0,0,.13.67,1.23,1.23,0,0,1-.15,1,2.19,2.19,0,0,0,0,2.43,2.26,2.26,0,0,1,.26.77A9.78,9.78,0,0,0,44,29.89Z"/><path class="cls-1" d="M49.73,24.54c0,.63-.09,1.26-.18,1.88,0,.25-.23.46-.19.72a3.59,3.59,0,0,1-.18,1.18.28.28,0,0,1-.15.26.94.94,0,0,0-.37.76,1,1,0,0,1-.35.68,1.06,1.06,0,0,0-.22.29,2.74,2.74,0,0,1-2.28,1.58A3.83,3.83,0,0,1,45,32c-.34,0-.53-.2-.52-.53a2.16,2.16,0,0,0-.33-1.19A1.08,1.08,0,0,1,44,30s0,0,0-.06a6.19,6.19,0,0,1-.56-2.06A4.69,4.69,0,0,0,43,26.58a1.84,1.84,0,0,1,0-1.87l.2-.4a1.49,1.49,0,0,0,0-1,14.43,14.43,0,0,0-.32-1.45,2.68,2.68,0,0,0-.62-1,.91.91,0,0,1-.27-1,3.43,3.43,0,0,0,.14-1.06c0-.33-.15-.47-.49-.47h-.1c-.35,0-.63,0-.81-.39s-.44-.4-.85-.27a3.46,3.46,0,0,0-.62.28,1.29,1.29,0,0,1-1,.16,1.53,1.53,0,0,0-1,.14.34.34,0,0,1-.43,0l-1.17-1a.28.28,0,0,1-.1-.12,2.34,2.34,0,0,0-.82-1.22,1.29,1.29,0,0,1-.33-1.43,3.3,3.3,0,0,0,0-2.06.28.28,0,0,1,0-.25,10.53,10.53,0,0,0,.63-1.2,2.1,2.1,0,0,1,.81-.93,1.3,1.3,0,0,0,.69-1.08,1,1,0,0,1,.57-.82.86.86,0,0,0,.52-.67c0-.3-.07-.44-.36-.52-.12,0-.3.06-.35-.1a1.07,1.07,0,0,1-.11-.66A3.56,3.56,0,0,0,37,5.09h0s0-.08.09,0a13.78,13.78,0,0,1,2.37,1.1.11.11,0,0,1,0,.06h0a.43.43,0,0,0,0,0v0a.06.06,0,0,0,0,0,1,1,0,0,1-.82.76l-.41.07c-.1,0-.23,0-.22.18s.12.14.22.15a1.26,1.26,0,0,0,1-.2,2,2,0,0,1,1.24-.37h.14l.16,0a19.81,19.81,0,0,1,7,7.92A19.56,19.56,0,0,1,49.73,24.54Z"/><path class="cls-1" d="M47.3,36.82a21.82,21.82,0,0,1-5,4.81A21.54,21.54,0,0,1,31,45.54c-.52,0-.51,0-.46.56L31,51.91h0a.23.23,0,0,1-.18.08c-.67,0-1.33,0-2,0-.14,0-.26-.06-.2-.25.11-1.36.23-2.73.35-4.09.05-.62.1-1.24.17-1.86,0-.2,0-.24-.23-.25A20.61,20.61,0,0,1,21.73,44,21.41,21.41,0,0,1,8.47,28.34,21.68,21.68,0,0,1,16.66,6.27c.16-.12.27-.16.42,0a6.65,6.65,0,0,0,.65.65c.14.12.1.19,0,.28s-.34.28-.52.39-.17.2,0,.32.1.12.16.17a.31.31,0,0,1-.05.17A.45.45,0,0,1,17,8.5l-.12,0h0a.17.17,0,0,1-.1-.06c-.2-.24-.3-.17-.5,0a20.66,20.66,0,0,0-4.34,5.45A20.21,20.21,0,0,0,9.59,21a19.18,19.18,0,0,0-.18,3.47A20.73,20.73,0,0,0,11.17,32a19.84,19.84,0,0,0,3.26,5.08A20.26,20.26,0,0,0,27.27,44a18.6,18.6,0,0,0,2.69.17,21.38,21.38,0,0,0,6.9-1.27,20.71,20.71,0,0,0,5.88-3.37,20.94,20.94,0,0,0,2.4-2.31c.1-.12.11-.22,0-.33a1,1,0,0,1-.26-.31v0a.47.47,0,0,1,.42-.43l.36.34c.09.1.15.11.23,0s.31-.4.46-.61.14-.11.24,0,.46.47.71.7S47.4,36.68,47.3,36.82Z"/><path class="cls-31" d="M49,28.58a19.62,19.62,0,0,1-3.62,7.23c-.06.08-.17.14-.13.27a.8.8,0,0,0-.39.44l0,0a12.3,12.3,0,0,1-1.09,1.19,22.82,22.82,0,0,1-2.4,2,20.08,20.08,0,0,1-6.22,2.94,20.38,20.38,0,0,1-3.19.6,5.64,5.64,0,0,1-1.48,0h-.23a4.45,4.45,0,0,0-.73,0H29.3a6.9,6.9,0,0,1-1.87-.1,18.25,18.25,0,0,1-3.66-.8,20.25,20.25,0,0,1-4.2-1.94,22.15,22.15,0,0,1-3.16-2.38c-.11-.11-.25-.2-.28-.37h0v0h0s0,0,.07,0a20.12,20.12,0,0,0,4.12,2.07,18.85,18.85,0,0,0,3.53.9,17.8,17.8,0,0,0,1.79.19c.53,0,1.07,0,1.6,0a19,19,0,0,0,11.83-4.53,19.14,19.14,0,0,0,3.7-4.23A17.42,17.42,0,0,0,44,29.9l0,0a2.49,2.49,0,0,1,.5,1.54.36.36,0,0,0,.37.41,3.21,3.21,0,0,0,2.9-1.2,5.27,5.27,0,0,1,.62-.89.81.81,0,0,0,.2-.61A.53.53,0,0,1,49,28.58Z"/><path class="cls-1" d="M41.36,56.11c0,.14,0,.19-.18.17H18.59c-.34,0-.34,0-.34-.35s0-.82,0-1.23a1.57,1.57,0,0,1,1.58-1.58h4.85a.64.64,0,0,1,.38-.08h9.46a.84.84,0,0,1,.41.08h4.79a1.57,1.57,0,0,1,1.62,1.55C41.37,55.15,41.35,55.63,41.36,56.11Z"/><path class="cls-30" d="M34.94,53.12H24.69a2.72,2.72,0,0,0,0-.57.59.59,0,0,1,.57-.62,1,1,0,0,0,.34,0h2.71c.09,0,.18,0,.25,0l.05-.16c0,.16.1.17.23.17H31s.09,0,.14,0h3.08a.27.27,0,0,0,.13,0,.57.57,0,0,1,.54.58A1.38,1.38,0,0,0,34.94,53.12Z"/><path class="cls-1" d="M22.86,5.38a4.07,4.07,0,0,0-1.79,1.27A.35.35,0,0,0,21,7a.66.66,0,0,1-.38.73,5.33,5.33,0,0,0-1.39,1,.78.78,0,0,0-.22.76c.05.3.1.59.14.88s0,.22-.2.16c-.47-.15-.5-.17-.53-.66s-.05-.38-.41-.45-.49-.1-.74-.17a.63.63,0,0,0-.62.18.54.54,0,0,1-.75.09v0c0-.16.15-.23.24-.32a6.39,6.39,0,0,1,.68-.59h0l.05,0h0L17,8.5a1.78,1.78,0,0,0,.26-.22l.19-.15a19.48,19.48,0,0,1,5.07-3L23,5C23.09,5.16,23.06,5.34,22.86,5.38Z"/><path class="cls-32" d="M34.35,51.93c-.06.07-.14,0-.22,0h-2.9c-.07,0-.17,0-.23,0h0Z"/><path class="cls-33" d="M28.58,51.91c0,.08-.12.07-.18.07H25.45a.22.22,0,0,1-.17,0Z"/><path class="cls-34" d="M37.08,5l-.08,0h0a2.49,2.49,0,0,1-.74-.25s-.05-.06-.06-.09,0,0,0,0A4.12,4.12,0,0,1,37.08,5Z"/><path class="cls-35" d="M25.07,4.39a3.23,3.23,0,0,1-.49.25c-.11.05-.12,0-.14-.13A2.84,2.84,0,0,1,25,4.35S25.1,4.38,25.07,4.39Z"/><path class="cls-36" d="M36.24,4.84l-.59-.19s-.16,0-.1-.13a2.36,2.36,0,0,1,.64.19s.05,0,.07.07S36.26,4.81,36.24,4.84Z"/><path class="cls-37" d="M17.46,8.13a2.11,2.11,0,0,1-.62.53l0-.05a.11.11,0,0,1,0-.08l0,0a.8.8,0,0,0,.45-.4Z"/><path class="cls-38" d="M40.76,7H40.6s-.11,0-.14-.06h0l0,0s0-.06,0-.09A.47.47,0,0,1,40.76,7Z"/><path class="cls-39" d="M40.49,6.89h0a.3.3,0,0,1-.29-.19v0s0,0,0,0h0l0,0c.08,0,.13,0,.19.07l.06.06Z"/><path class="cls-40" d="M39.71,6.39h0s0,0-.05,0-.17,0-.2-.11a.18.18,0,0,1,0-.13h0c.06,0,.11,0,.17,0v.08S39.72,6.35,39.71,6.39Z"/><path class="cls-41" d="M40,6.5a.07.07,0,0,1,0,.06h0c-.11,0-.24,0-.25-.18h0c.06,0,.13,0,.19,0Z"/><path class="cls-42" d="M40.38,6.71l-.2,0h0c-.06,0-.12,0-.08-.14A.44.44,0,0,1,40.38,6.71Z"/><path class="cls-43" d="M40.18,6.66h0c-.1,0-.19,0-.2-.11s0,0,0,0l.05,0,.07,0a.64.64,0,0,1,.08.14Z"/><path class="cls-44" d="M39.9,6.39h-.2a.41.41,0,0,0-.05-.09C39.77,6.25,39.83,6.32,39.9,6.39Z"/><path class="cls-45" d="M39.64,6.23a.2.2,0,0,1-.17,0l0,0a.13.13,0,0,1,0-.06A.24.24,0,0,1,39.64,6.23Z"/><path class="cls-1" d="M32.17,22.79a2.25,2.25,0,0,1-.3.6c-.11.15-.2.31-.31.46a1.93,1.93,0,0,0-.36,1.25,5.08,5.08,0,0,1-.26,2.09,1,1,0,0,1-.78.76,2.39,2.39,0,0,0-.91.4A.61.61,0,0,0,29,29a1.62,1.62,0,0,1-.31,1.33,2.52,2.52,0,0,0-.44.92c-.19.75-.35.72-1.08.66,0,0-.1,0-.17,0a5.79,5.79,0,0,1,.31.54c.25.49.12.77-.41.9h0c-.48.12-.49.12-.51.61,0,.15-.07.21-.21.22s-.28,0-.31.12.09.23.24.25.13.14.09.23a3.25,3.25,0,0,1-.33.9c-.14.2-.08.32.15.42s.4.23.3.62c0,.09-.05.18-.07.27s-.23.43-.06.68.51.8,1,.9c.16,0,.21.1.21.26s-.12.2-.24.22a1.76,1.76,0,0,1-.84-.14,3.91,3.91,0,0,1-2-1.84,7.12,7.12,0,0,1-.44-1.35c-.07-.25.09-.51.12-.76a1.94,1.94,0,0,0,0-.24.1.1,0,0,0-.09-.11c-.06,0-.13,0-.13.09s0,.14-.08.14-.07-.09-.08-.14-.1-.38-.14-.56a3.3,3.3,0,0,0-.26-.93,1,1,0,0,1-.11-.53,7.15,7.15,0,0,0-.2-2.21,7.38,7.38,0,0,1-.15-1.63c0-.64-.08-1.27-.16-1.9a1.48,1.48,0,0,0-.92-1.27,2.9,2.9,0,0,1-1.5-1.56,13.63,13.63,0,0,0-.91-1.68,1.09,1.09,0,0,0-.22-.26.77.77,0,0,1-.2-1.13.26.26,0,0,0,0-.29A1.12,1.12,0,0,1,19,19.42a2.13,2.13,0,0,0,.56-1.13,2,2,0,0,0-.45-1.41c-.13-.18-.26-.07-.36.05a.49.49,0,0,0-.06.17c0,.18-.11.22-.29.12a5.14,5.14,0,0,1-1.19-.84.49.49,0,0,1-.15-.24,1.32,1.32,0,0,0-1.18-1,1.1,1.1,0,0,1-.86-.54.65.65,0,0,0-.79-.29,1,1,0,0,1-.85-.13c-.24-.15-.54-.2-.74-.43h0c0-.07,0-.13,0-.18a16.28,16.28,0,0,1,.91-1.42s.07-.11.13-.11h0c.12.25.1.54.22.79a1.07,1.07,0,0,0,1.26.63A.84.84,0,0,0,15.8,13,2.26,2.26,0,0,1,16,12.6a.57.57,0,0,1,.73-.23c.1,0,.08.12.09.19a2.3,2.3,0,0,1-.21,1s0,.07,0,.11c-.23.53-.14.67.42.65h.21c.58,0,.74.2.66.77a2.6,2.6,0,0,0,0,1,.67.67,0,0,0,1,.51.61.61,0,0,1,.68.08c.22.17.34.14.48-.11l.09-.18a.68.68,0,0,1,.54-.54c.09,0,.18-.08.27-.11s.24-.22.36-.15.15.22.22.34c.43-.3.32-.28.73,0a1.51,1.51,0,0,0,1.18.22,1,1,0,0,1,1.1.43,6.37,6.37,0,0,0,1.15,1.11.93.93,0,0,0,.55.11,1.33,1.33,0,0,1,1.21.87c.13.34.28.68.43,1a.66.66,0,0,0,.53.37,1.68,1.68,0,0,1,1.05.54.49.49,0,0,0,.41.13,2.18,2.18,0,0,1,1.54.67.62.62,0,0,0,.25.14A.94.94,0,0,1,32.17,22.79Z"/><path class="cls-29" d="M45.21,36.86a2.58,2.58,0,0,1-.32-.34h0c-.1,0-.13.1-.19.16A19.58,19.58,0,0,1,34,42.88a16.75,16.75,0,0,1-3.45.4c-.43,0-.84,0-1.27,0a9.69,9.69,0,0,1-1.07-.05,19.38,19.38,0,0,1-8.51-2.78,18.3,18.3,0,0,1-3.53-2.73v0h0l0,0h0a.34.34,0,0,0-.17-.14l-.41-.44A19.48,19.48,0,0,1,10.09,24a19.1,19.1,0,0,1,1.36-7.73,14.88,14.88,0,0,1,1.23-2.54h0a14.51,14.51,0,0,1,1.07-1.68h0l0,0a1,1,0,0,1,.22-.32,15.33,15.33,0,0,1,1.88-2.15l0,0h0a8.39,8.39,0,0,1,.93-.86s0-.05,0-.08h0V8.51l-.1-.09c-.26-.26-.26-.26-.53,0A20.47,20.47,0,0,0,41.31,40.66a20.82,20.82,0,0,0,3.91-3.47C45.34,37.06,45.35,37,45.21,36.86Zm-.07.33a20.94,20.94,0,0,1-2.4,2.31,20.71,20.71,0,0,1-5.88,3.37A21.38,21.38,0,0,1,30,44.14,18.6,18.6,0,0,1,27.27,44a20.26,20.26,0,0,1-12.84-6.85A19.84,19.84,0,0,1,11.17,32a20.73,20.73,0,0,1-1.76-7.56A19.18,19.18,0,0,1,9.59,21a20.21,20.21,0,0,1,2.32-7.08,20.66,20.66,0,0,1,4.34-5.45c.2-.18.3-.25.5,0a.17.17,0,0,0,.1.06.11.11,0,0,0,0,.08h0a6.39,6.39,0,0,0-.68.59c-.09.09-.24.16-.24.32a.43.43,0,0,0-.26.17,18.62,18.62,0,0,0-1.77,2.09.48.48,0,0,0-.1.23c-.06,0-.09.06-.13.11a16.28,16.28,0,0,0-.91,1.42c0,.05-.08.11,0,.18-.12,0-.16.12-.21.22a19.6,19.6,0,0,0-1.22,2.63A20.48,20.48,0,0,0,10,23a20.17,20.17,0,0,0,.09,2.33,18.5,18.5,0,0,0,.9,4.35,19.51,19.51,0,0,0,3.27,6.09,18.2,18.2,0,0,0,1.61,1.79l.09,0h0a.91.91,0,0,0,.17.17h0c0,.17.17.26.28.37a22.15,22.15,0,0,0,3.16,2.38,20.25,20.25,0,0,0,4.2,1.94,18.25,18.25,0,0,0,3.66.8,6.9,6.9,0,0,0,1.87.1h.23c.24,0,.49,0,.73,0h.23a5.64,5.64,0,0,0,1.48,0,20.38,20.38,0,0,0,3.19-.6,20.08,20.08,0,0,0,6.22-2.94,22.82,22.82,0,0,0,2.4-2,12.3,12.3,0,0,0,1.09-1.19,1,1,0,0,0,.26.31C45.25,37,45.24,37.07,45.14,37.19Z"/><path class="cls-46" d="M30.31,3.82h-1v0h1Z"/><path class="cls-47" d="M16.21,37.66s0,0,0,0l0,0h0a.91.91,0,0,1-.17-.17h0l0,0C16.08,37.47,16.12,37.61,16.21,37.66Z"/><path class="cls-30" d="M40,6.54c0,.09.11.11.19.14l.33.21L40.6,7a2.08,2.08,0,0,0-1.4.41,1.41,1.41,0,0,1-1.1.16.23.23,0,0,1-.2-.21c0-.12.07-.17.15-.21l.18,0a1.17,1.17,0,0,0,1.21-.89c0,.15.16.16.26.21A.44.44,0,0,0,40,6.54Z"/><path class="cls-48" d="M30.53,43.28l-.27,0h0c-.24,0-.49,0-.73,0h0l-.27,0a3.25,3.25,0,0,1,1-.06C30.37,43.21,30.46,43.19,30.53,43.28Z"/></g></g></svg>