<svg id="Layer_1" data-name="Layer 1" xmlns="http://www.w3.org/2000/svg" viewBox="0 0 60 60"><defs><style>.cls-1{fill:#fefefe;}.cls-2{fill:#e2000f;}.cls-3{fill:#e52c1e;}.cls-4{fill:#f4a68a;}.cls-5{fill:#f9c8b4;}.cls-6{fill:#fcece4;}.cls-7{fill:#ea5c40;}.cls-8{fill:#f8c2ad;}.cls-9{fill:#f8c9b5;}.cls-10{fill:#fbdfd3;}.cls-11{fill:#fce5db;}.cls-12{fill:#ef8263;}.cls-13{fill:#ea583c;}.cls-14{fill:#f6b79e;}.cls-15{fill:#f4a58a;}.cls-16{fill:#fce7dd;}.cls-17{fill:#fbdccf;}.cls-18{fill:#e52d2f;}.cls-19{fill:#f5b199;}</style></defs><title>Artboard 1</title><path class="cls-1" d="M29.6,58v0a32.28,32.28,0,0,1-3.8-.32A26.89,26.89,0,0,1,16,54.18,27.7,27.7,0,0,1,3,37.31a27,27,0,0,1-.95-6.19c0-.06,0-.13,0-.18.12,0,.09.12.09.19A28.18,28.18,0,0,0,4.62,41.62a28.46,28.46,0,0,0,3.2,5.32C8.36,47.65,9,48.33,9.56,49a26.81,26.81,0,0,0,3.62,3.28,27.23,27.23,0,0,0,3.72,2.37,28,28,0,0,0,4.65,2,26.7,26.7,0,0,0,4.83,1.06c.77.1,1.54.17,2.32.21a4.44,4.44,0,0,1,.89.06l0,0A0,0,0,0,1,29.6,58Z"/><path class="cls-1" d="M29.28,2h0a0,0,0,0,1,0,0,3,3,0,0,1-.73.06A28,28,0,0,0,17.22,5.18a28.47,28.47,0,0,0-4.83,3.16,27,27,0,0,0-2.71,2.52A27.95,27.95,0,0,0,2.89,23.37a26,26,0,0,0-.66,3.93c0,.52-.08,1.05-.12,1.58a.31.31,0,0,1,0,.13h0s0,0,0,0h0a28.37,28.37,0,0,1,1-6.53,28,28,0,0,1,21-19.83A28.42,28.42,0,0,1,29.28,2V2S29.29,2,29.28,2Z"/><path class="cls-1" d="M58,31.43h0a28.75,28.75,0,0,1-1.65,8.14A28.07,28.07,0,0,1,37.16,57a28.48,28.48,0,0,1-6.62.92h-.1v0a0,0,0,0,1,0,0l0,0a.42.42,0,0,1,.19,0c.56,0,1.12,0,1.68-.09.84-.07,1.68-.18,2.51-.32a27.7,27.7,0,0,0,4.08-1A28.55,28.55,0,0,0,45,53.56a27.54,27.54,0,0,0,3.56-2.7,28.17,28.17,0,0,0,4.39-4.93,29.67,29.67,0,0,0,2.3-4A28.22,28.22,0,0,0,57,37.18a29.76,29.76,0,0,0,.73-3.74c.07-.61.11-1.22.17-1.83a.38.38,0,0,1,0-.18H58Z"/><path class="cls-1" d="M58,28.62c-.11,0-.09-.11-.09-.17,0-.58-.09-1.16-.16-1.74a28.22,28.22,0,0,0-.92-4.55,27.69,27.69,0,0,0-2.13-5.24,28,28,0,0,0-3.38-5c-.5-.58-1-1.16-1.56-1.7a28.72,28.72,0,0,0-6.23-4.68,27.62,27.62,0,0,0-6.9-2.69A25.66,25.66,0,0,0,33,2.25c-.69-.08-1.38-.12-2.08-.16a.32.32,0,0,1-.17,0,0,0,0,0,1,0,0h0s0,0,0,0V2a27.94,27.94,0,0,1,5.31.66A28,28,0,0,1,57,22.63a28,28,0,0,1,.95,5.83C57.94,28.51,57.91,28.58,58,28.62Z"/><path class="cls-2" d="M43.73,36.88a.65.65,0,0,0,0-.13c-.57-1.51-1.08-3-1.62-4.57-.16-.47-.32-.95-.51-1.41a.73.73,0,0,0-.87-.52l-.26,0a22.47,22.47,0,0,0-2.3.67.32.32,0,0,1-.33-.06,2,2,0,0,1-.92-1.67A1.08,1.08,0,0,0,36,28.15c-.17,0-.43,0-.49-.14s.06-.36.11-.54a.3.3,0,0,0-.06-.31l-1-1.33a33.91,33.91,0,0,1-2.36-3.24,4.9,4.9,0,0,1-.72-1.77,14,14,0,0,1-.13-1.44,7.07,7.07,0,0,0-.63-2.71c-.24-.52-.49-1-.76-1.53a1.63,1.63,0,0,1-.13-1.33c.06-.2.13-.38.18-.57a.18.18,0,0,1,.2-.15l.76,0c.48,0,.6-.15.62-.62A1.6,1.6,0,0,1,32,11.3c.06-.07.11-.14.17-.2a.21.21,0,0,0,0-.31,1.53,1.53,0,0,1-.37-1.36c0-.35.08-.71.09-1.07a.9.9,0,0,0-.76-1.1,4.57,4.57,0,0,0-3,0,2.36,2.36,0,0,0-1.47,1.59,3.18,3.18,0,0,0,0,1.65c.14.59.29,1.18.43,1.77a.22.22,0,0,1,0,.22,7.83,7.83,0,0,1-1.81,1.54,1.72,1.72,0,0,0-.86,1.08c-.44,1.53-1,3-1.54,4.52A14.16,14.16,0,0,0,21.93,23a38.08,38.08,0,0,0-.14,4.27,11.31,11.31,0,0,0,.19,2.1c0,.18.09.27.29.26s.45,0,.68,0l1.1,0c0-.07-.1-.05-.16-.06h-.08c-.48,0-.95-.06-1.42-.05-.28,0-.31,0-.37-.31a14.32,14.32,0,0,1-.19-2.16c0-.84,0-1.67.05-2.5a13,13,0,0,1,.07-1.4,14.75,14.75,0,0,1,.64-2.78c.29-.89.63-1.76.95-2.64s.6-1.83.9-2.75a1.33,1.33,0,0,1,.64-.81A8.5,8.5,0,0,0,27,12.62a.35.35,0,0,0,.11-.36c-.09-.38-.19-.75-.28-1.13a4.51,4.51,0,0,1-.21-1.86,2.32,2.32,0,0,1,1.59-1.94,4.55,4.55,0,0,1,2.07-.2,3.43,3.43,0,0,1,1,.25.84.84,0,0,1,.54.85c0,.42-.07.84-.1,1.26A1.55,1.55,0,0,0,32,10.67c.22.28.22.29,0,.57a1.74,1.74,0,0,0-.46,1,2.26,2.26,0,0,1,0,.26c0,.29-.16.42-.46.46a6.79,6.79,0,0,1-.78,0,.3.3,0,0,0-.34.24c-.06.17-.11.34-.17.51a1.7,1.7,0,0,0,.12,1.36c.23.43.44.86.65,1.29a6.73,6.73,0,0,1,.67,2.18c.06.59.09,1.18.15,1.78a4.57,4.57,0,0,0,.55,1.83,20.12,20.12,0,0,0,1.38,2.07c.71.95,1.46,1.87,2.19,2.82a.49.49,0,0,1,.09.45l-.09.31a.18.18,0,0,0,.15.25l.32.07a1.05,1.05,0,0,1,.93,1c0,.06,0,.11,0,.16a2,2,0,0,0,.84,1.51.51.51,0,0,0,.54.09c.64-.21,1.28-.41,1.94-.58a2.42,2.42,0,0,1,.76-.07.57.57,0,0,1,.5.31c.09.19.18.38.25.57.24.73.5,1.44.75,2.16l1,2.75a6,6,0,0,1,.32.93.38.38,0,0,1-.25.5l-.34.16c-2.16.84-4.34,1.61-6.52,2.38l-2.34.8c-.25.08-.26.1-.2.36s.11.41.17.62l1.32,5a.35.35,0,0,0,.1.2,0,0,0,0,1,0,0,.14.14,0,0,0,0-.06c-.52-1.94-1-3.89-1.56-5.83,0-.13,0-.14.12-.16,1.07-.35,2.14-.72,3.2-1.09,2-.71,4-1.42,6-2.21C43.79,37.48,43.86,37.31,43.73,36.88Zm-18.46.37c0-.92-.06-1.84-.15-2.76-.06-.52-.11-1-.22-1.55,0-.25-.12-.27-.31-.09a1.25,1.25,0,0,1-.76.33,1.21,1.21,0,0,1-1.1-.61,3,3,0,0,1-.42-2.41c0-.13.1-.17.22-.17s.39.05.59.07a1.1,1.1,0,0,0,.84-.22c.05,0,.11-.09.1-.16h0a1,1,0,0,1-.91.34l-.7-.07c-.1,0-.15,0-.16.12s-.07.32-.09.49a2.85,2.85,0,0,0,.6,2.2,1.21,1.21,0,0,0,1.86.12s.07-.11.16-.1.07.31.09.47a32.52,32.52,0,0,1,.31,5.12,4,4,0,0,1-.45,1.77,9.31,9.31,0,0,1-1,1.53,40.09,40.09,0,0,0-4.09,5.42v0a.55.55,0,0,0,.18-.22,26.67,26.67,0,0,1,1.6-2.33c.8-1,1.69-2,2.5-3.06A7.15,7.15,0,0,0,25,39.67,6,6,0,0,0,25.27,37.25Zm18.46-.37a.65.65,0,0,0,0-.13c-.57-1.51-1.08-3-1.62-4.57-.16-.47-.32-.95-.51-1.41a.73.73,0,0,0-.87-.52l-.26,0a22.47,22.47,0,0,0-2.3.67.32.32,0,0,1-.33-.06,2,2,0,0,1-.92-1.67A1.08,1.08,0,0,0,36,28.15c-.17,0-.43,0-.49-.14s.06-.36.11-.54a.3.3,0,0,0-.06-.31l-1-1.33a33.91,33.91,0,0,1-2.36-3.24,4.9,4.9,0,0,1-.72-1.77,14,14,0,0,1-.13-1.44,7.07,7.07,0,0,0-.63-2.71c-.24-.52-.49-1-.76-1.53a1.63,1.63,0,0,1-.13-1.33c.06-.2.13-.38.18-.57a.18.18,0,0,1,.2-.15l.76,0c.48,0,.6-.15.62-.62A1.6,1.6,0,0,1,32,11.3c.06-.07.11-.14.17-.2a.21.21,0,0,0,0-.31,1.53,1.53,0,0,1-.37-1.36c0-.35.08-.71.09-1.07a.9.9,0,0,0-.76-1.1,4.57,4.57,0,0,0-3,0,2.36,2.36,0,0,0-1.47,1.59,3.18,3.18,0,0,0,0,1.65c.14.59.29,1.18.43,1.77a.22.22,0,0,1,0,.22,7.83,7.83,0,0,1-1.81,1.54,1.72,1.72,0,0,0-.86,1.08c-.44,1.53-1,3-1.54,4.52A14.16,14.16,0,0,0,21.93,23a38.08,38.08,0,0,0-.14,4.27,11.31,11.31,0,0,0,.19,2.1c0,.18.09.27.29.26s.45,0,.68,0l1.1,0c0-.07-.1-.05-.16-.06h-.08c-.48,0-.95-.06-1.42-.05-.28,0-.31,0-.37-.31a14.32,14.32,0,0,1-.19-2.16c0-.84,0-1.67.05-2.5a13,13,0,0,1,.07-1.4,14.75,14.75,0,0,1,.64-2.78c.29-.89.63-1.76.95-2.64s.6-1.83.9-2.75a1.33,1.33,0,0,1,.64-.81A8.5,8.5,0,0,0,27,12.62a.35.35,0,0,0,.11-.36c-.09-.38-.19-.75-.28-1.13a4.51,4.51,0,0,1-.21-1.86,2.32,2.32,0,0,1,1.59-1.94,4.55,4.55,0,0,1,2.07-.2,3.43,3.43,0,0,1,1,.25.84.84,0,0,1,.54.85c0,.42-.07.84-.1,1.26A1.55,1.55,0,0,0,32,10.67c.22.28.22.29,0,.57a1.74,1.74,0,0,0-.46,1,2.26,2.26,0,0,1,0,.26c0,.29-.16.42-.46.46a6.79,6.79,0,0,1-.78,0,.3.3,0,0,0-.34.24c-.06.17-.11.34-.17.51a1.7,1.7,0,0,0,.12,1.36c.23.43.44.86.65,1.29a6.73,6.73,0,0,1,.67,2.18c.06.59.09,1.18.15,1.78a4.57,4.57,0,0,0,.55,1.83,20.12,20.12,0,0,0,1.38,2.07c.71.95,1.46,1.87,2.19,2.82a.49.49,0,0,1,.09.45l-.09.31a.18.18,0,0,0,.15.25l.32.07a1.05,1.05,0,0,1,.93,1c0,.06,0,.11,0,.16a2,2,0,0,0,.84,1.51.51.51,0,0,0,.54.09c.64-.21,1.28-.41,1.94-.58a2.42,2.42,0,0,1,.76-.07.57.57,0,0,1,.5.31c.09.19.18.38.25.57.24.73.5,1.44.75,2.16l1,2.75a6,6,0,0,1,.32.93.38.38,0,0,1-.25.5l-.34.16c-2.16.84-4.34,1.61-6.52,2.38l-2.34.8c-.25.08-.26.1-.2.36s.11.41.17.62l1.32,5a.35.35,0,0,0,.1.2,0,0,0,0,1,0,0,.14.14,0,0,0,0-.06c-.52-1.94-1-3.89-1.56-5.83,0-.13,0-.14.12-.16,1.07-.35,2.14-.72,3.2-1.09,2-.71,4-1.42,6-2.21C43.79,37.48,43.86,37.31,43.73,36.88Zm-18.46.37c0-.92-.06-1.84-.15-2.76-.06-.52-.11-1-.22-1.55,0-.25-.12-.27-.31-.09a1.25,1.25,0,0,1-.76.33,1.21,1.21,0,0,1-1.1-.61,3,3,0,0,1-.42-2.41c0-.13.1-.17.22-.17s.39.05.59.07a1.1,1.1,0,0,0,.84-.22c.05,0,.11-.09.1-.16h0a1,1,0,0,1-.91.34l-.7-.07c-.1,0-.15,0-.16.12s-.07.32-.09.49a2.85,2.85,0,0,0,.6,2.2,1.21,1.21,0,0,0,1.86.12s.07-.11.16-.1.07.31.09.47a32.52,32.52,0,0,1,.31,5.12,4,4,0,0,1-.45,1.77,9.31,9.31,0,0,1-1,1.53,40.09,40.09,0,0,0-4.09,5.42v0a.55.55,0,0,0,.18-.22,26.67,26.67,0,0,1,1.6-2.33c.8-1,1.69-2,2.5-3.06A7.15,7.15,0,0,0,25,39.67,6,6,0,0,0,25.27,37.25Zm18.46-.37a.65.65,0,0,0,0-.13c-.57-1.51-1.08-3-1.62-4.57-.16-.47-.32-.95-.51-1.41a.73.73,0,0,0-.87-.52l-.26,0a22.47,22.47,0,0,0-2.3.67.32.32,0,0,1-.33-.06,2,2,0,0,1-.92-1.67A1.08,1.08,0,0,0,36,28.15c-.17,0-.43,0-.49-.14s.06-.36.11-.54a.3.3,0,0,0-.06-.31l-1-1.33a33.91,33.91,0,0,1-2.36-3.24,4.9,4.9,0,0,1-.72-1.77,14,14,0,0,1-.13-1.44,7.07,7.07,0,0,0-.63-2.71c-.24-.52-.49-1-.76-1.53a1.63,1.63,0,0,1-.13-1.33c.06-.2.13-.38.18-.57a.18.18,0,0,1,.2-.15l.76,0c.48,0,.6-.15.62-.62A1.6,1.6,0,0,1,32,11.3c.06-.07.11-.14.17-.2a.21.21,0,0,0,0-.31,1.53,1.53,0,0,1-.37-1.36c0-.35.08-.71.09-1.07a.9.9,0,0,0-.76-1.1,4.57,4.57,0,0,0-3,0,2.36,2.36,0,0,0-1.47,1.59,3.18,3.18,0,0,0,0,1.65c.14.59.29,1.18.43,1.77a.22.22,0,0,1,0,.22,7.83,7.83,0,0,1-1.81,1.54,1.72,1.72,0,0,0-.86,1.08c-.44,1.53-1,3-1.54,4.52A14.16,14.16,0,0,0,21.93,23a38.08,38.08,0,0,0-.14,4.27,11.31,11.31,0,0,0,.19,2.1c0,.18.09.27.29.26s.45,0,.68,0l1.1,0c0-.07-.1-.05-.16-.06h-.08c-.48,0-.95-.06-1.42-.05-.28,0-.31,0-.37-.31a14.32,14.32,0,0,1-.19-2.16c0-.84,0-1.67.05-2.5a13,13,0,0,1,.07-1.4,14.75,14.75,0,0,1,.64-2.78c.29-.89.63-1.76.95-2.64s.6-1.83.9-2.75a1.33,1.33,0,0,1,.64-.81A8.5,8.5,0,0,0,27,12.62a.35.35,0,0,0,.11-.36c-.09-.38-.19-.75-.28-1.13a4.51,4.51,0,0,1-.21-1.86,2.32,2.32,0,0,1,1.59-1.94,4.55,4.55,0,0,1,2.07-.2,3.43,3.43,0,0,1,1,.25.84.84,0,0,1,.54.85c0,.42-.07.84-.1,1.26A1.55,1.55,0,0,0,32,10.67c.22.28.22.29,0,.57a1.74,1.74,0,0,0-.46,1,2.26,2.26,0,0,1,0,.26c0,.29-.16.42-.46.46a6.79,6.79,0,0,1-.78,0,.3.3,0,0,0-.34.24c-.06.17-.11.34-.17.51a1.7,1.7,0,0,0,.12,1.36c.23.43.44.86.65,1.29a6.73,6.73,0,0,1,.67,2.18c.06.59.09,1.18.15,1.78a4.57,4.57,0,0,0,.55,1.83,20.12,20.12,0,0,0,1.38,2.07c.71.95,1.46,1.87,2.19,2.82a.49.49,0,0,1,.09.45l-.09.31a.18.18,0,0,0,.15.25l.32.07a1.05,1.05,0,0,1,.93,1c0,.06,0,.11,0,.16a2,2,0,0,0,.84,1.51.51.51,0,0,0,.54.09c.64-.21,1.28-.41,1.94-.58a2.42,2.42,0,0,1,.76-.07.57.57,0,0,1,.5.31c.09.19.18.38.25.57.24.73.5,1.44.75,2.16l1,2.75a6,6,0,0,1,.32.93.38.38,0,0,1-.25.5l-.34.16c-2.16.84-4.34,1.61-6.52,2.38l-2.34.8c-.25.08-.26.1-.2.36s.11.41.17.62l1.32,5a.35.35,0,0,0,.1.2,0,0,0,0,1,0,0,.14.14,0,0,0,0-.06c-.52-1.94-1-3.89-1.56-5.83,0-.13,0-.14.12-.16,1.07-.35,2.14-.72,3.2-1.09,2-.71,4-1.42,6-2.21C43.79,37.48,43.86,37.31,43.73,36.88Zm-18.46.37c0-.92-.06-1.84-.15-2.76-.06-.52-.11-1-.22-1.55,0-.25-.12-.27-.31-.09a1.25,1.25,0,0,1-.76.33,1.21,1.21,0,0,1-1.1-.61,3,3,0,0,1-.42-2.41c0-.13.1-.17.22-.17s.39.05.59.07a1.1,1.1,0,0,0,.84-.22c.05,0,.11-.09.1-.16h0a1,1,0,0,1-.91.34l-.7-.07c-.1,0-.15,0-.16.12s-.07.32-.09.49a2.85,2.85,0,0,0,.6,2.2,1.21,1.21,0,0,0,1.86.12s.07-.11.16-.1.07.31.09.47a32.52,32.52,0,0,1,.31,5.12,4,4,0,0,1-.45,1.77,9.31,9.31,0,0,1-1,1.53,40.09,40.09,0,0,0-4.09,5.42v0a.55.55,0,0,0,.18-.22,26.67,26.67,0,0,1,1.6-2.33c.8-1,1.69-2,2.5-3.06A7.15,7.15,0,0,0,25,39.67,6,6,0,0,0,25.27,37.25Zm18.46-.37a.65.65,0,0,0,0-.13c-.57-1.51-1.08-3-1.62-4.57-.16-.47-.32-.95-.51-1.41a.73.73,0,0,0-.87-.52l-.26,0a22.47,22.47,0,0,0-2.3.67.32.32,0,0,1-.33-.06,2,2,0,0,1-.92-1.67A1.08,1.08,0,0,0,36,28.15c-.17,0-.43,0-.49-.14s.06-.36.11-.54a.3.3,0,0,0-.06-.31l-1-1.33a33.91,33.91,0,0,1-2.36-3.24,4.9,4.9,0,0,1-.72-1.77,14,14,0,0,1-.13-1.44,7.07,7.07,0,0,0-.63-2.71c-.24-.52-.49-1-.76-1.53a1.63,1.63,0,0,1-.13-1.33c.06-.2.13-.38.18-.57a.18.18,0,0,1,.2-.15l.76,0c.48,0,.6-.15.62-.62A1.6,1.6,0,0,1,32,11.3c.06-.07.11-.14.17-.2a.21.21,0,0,0,0-.31,1.53,1.53,0,0,1-.37-1.36c0-.35.08-.71.09-1.07a.9.9,0,0,0-.76-1.1,4.57,4.57,0,0,0-3,0,2.36,2.36,0,0,0-1.47,1.59,3.18,3.18,0,0,0,0,1.65c.14.59.29,1.18.43,1.77a.22.22,0,0,1,0,.22,7.83,7.83,0,0,1-1.81,1.54,1.72,1.72,0,0,0-.86,1.08c-.44,1.53-1,3-1.54,4.52A14.16,14.16,0,0,0,21.93,23a38.08,38.08,0,0,0-.14,4.27,11.31,11.31,0,0,0,.19,2.1c0,.18.09.27.29.26s.45,0,.68,0l1.1,0c0-.07-.1-.05-.16-.06h-.08c-.48,0-.95-.06-1.42-.05-.28,0-.31,0-.37-.31a14.32,14.32,0,0,1-.19-2.16c0-.84,0-1.67.05-2.5a13,13,0,0,1,.07-1.4,14.75,14.75,0,0,1,.64-2.78c.29-.89.63-1.76.95-2.64s.6-1.83.9-2.75a1.33,1.33,0,0,1,.64-.81A8.5,8.5,0,0,0,27,12.62a.35.35,0,0,0,.11-.36c-.09-.38-.19-.75-.28-1.13a4.51,4.51,0,0,1-.21-1.86,2.32,2.32,0,0,1,1.59-1.94,4.55,4.55,0,0,1,2.07-.2,3.43,3.43,0,0,1,1,.25.84.84,0,0,1,.54.85c0,.42-.07.84-.1,1.26A1.55,1.55,0,0,0,32,10.67c.22.28.22.29,0,.57a1.74,1.74,0,0,0-.46,1,2.26,2.26,0,0,1,0,.26c0,.29-.16.42-.46.46a6.79,6.79,0,0,1-.78,0,.3.3,0,0,0-.34.24c-.06.17-.11.34-.17.51a1.7,1.7,0,0,0,.12,1.36c.23.43.44.86.65,1.29a6.73,6.73,0,0,1,.67,2.18c.06.59.09,1.18.15,1.78a4.57,4.57,0,0,0,.55,1.83,20.12,20.12,0,0,0,1.38,2.07c.71.95,1.46,1.87,2.19,2.82a.49.49,0,0,1,.09.45l-.09.31a.18.18,0,0,0,.15.25l.32.07a1.05,1.05,0,0,1,.93,1c0,.06,0,.11,0,.16a2,2,0,0,0,.84,1.51.51.51,0,0,0,.54.09c.64-.21,1.28-.41,1.94-.58a2.42,2.42,0,0,1,.76-.07.57.57,0,0,1,.5.31c.09.19.18.38.25.57.24.73.5,1.44.75,2.16l1,2.75a6,6,0,0,1,.32.93.38.38,0,0,1-.25.5l-.34.16c-2.16.84-4.34,1.61-6.52,2.38l-2.34.8c-.25.08-.26.1-.2.36s.11.41.17.62l1.32,5a.35.35,0,0,0,.1.2,0,0,0,0,1,0,0,.14.14,0,0,0,0-.06c-.52-1.94-1-3.89-1.56-5.83,0-.13,0-.14.12-.16,1.07-.35,2.14-.72,3.2-1.09,2-.71,4-1.42,6-2.21C43.79,37.48,43.86,37.31,43.73,36.88ZM23.14,30l-.7-.07c-.1,0-.15,0-.16.12s-.07.32-.09.49a2.85,2.85,0,0,0,.6,2.2,1.21,1.21,0,0,0,1.86.12s.07-.11.16-.1.07.31.09.47a32.52,32.52,0,0,1,.31,5.12,4,4,0,0,1-.45,1.77,9.31,9.31,0,0,1-1,1.53,40.09,40.09,0,0,0-4.09,5.42v0a.55.55,0,0,0,.18-.22,26.67,26.67,0,0,1,1.6-2.33c.8-1,1.69-2,2.5-3.06A7.15,7.15,0,0,0,25,39.67a6,6,0,0,0,.25-2.42c0-.92-.06-1.84-.15-2.76-.06-.52-.11-1-.22-1.55,0-.25-.12-.27-.31-.09a1.25,1.25,0,0,1-.76.33,1.21,1.21,0,0,1-1.1-.61,3,3,0,0,1-.42-2.41c0-.13.1-.17.22-.17s.39.05.59.07a1.1,1.1,0,0,0,.84-.22c.05,0,.11-.09.1-.16h0A1,1,0,0,1,23.14,30ZM58,28.62c-.07,0,0-.11,0-.16A28,28,0,0,0,57,22.63,28,28,0,0,0,36.07,2.69,27.94,27.94,0,0,0,30.76,2h0a2.35,2.35,0,0,0-.26,0h-.95a1.22,1.22,0,0,0-.27,0h0a28.42,28.42,0,0,0-5.21.63,28,28,0,0,0-21,19.83,28.37,28.37,0,0,0-1,6.53h0a.61.61,0,0,0,0,.19H2V30.5H2a.76.76,0,0,1,0,.3v.12c.08,0,0,.12,0,.18A27,27,0,0,0,3,37.31,27.7,27.7,0,0,0,16,54.18a26.89,26.89,0,0,0,9.83,3.47,32.28,32.28,0,0,0,3.8.32h0a5.61,5.61,0,0,0,.82,0h.11A28.48,28.48,0,0,0,37.16,57,28.07,28.07,0,0,0,56.3,39.57,28.75,28.75,0,0,0,58,31.43h0a1.09,1.09,0,0,0,0-.18h0c0-.08,0-.17,0-.25v-.12a1,1,0,0,1,0-.34V29.23h0v-.3h0a.42.42,0,0,1,0-.22Zm-.56,4A27.19,27.19,0,0,1,51.1,47.71c-.4.47-.82.92-1.23,1.38-.07.06-.15,0-.22,0-1.94-.48-3.9-.85-5.87-1.17-1.43-.23-2.85-.42-4.29-.58-1.27-.14-2.55-.27-3.83-.35a.14.14,0,0,0,0-.06c-.52-1.94-1-3.89-1.56-5.83,0-.13,0-.14.12-.16,1.07-.35,2.14-.72,3.2-1.09,2-.71,4-1.42,6-2.21.42-.17.49-.34.36-.77a.65.65,0,0,0,0-.13c-.57-1.51-1.08-3-1.62-4.57-.16-.47-.32-.95-.51-1.41a.73.73,0,0,0-.87-.52l-.26,0a22.47,22.47,0,0,0-2.3.67.32.32,0,0,1-.33-.06,2,2,0,0,1-.92-1.67A1.08,1.08,0,0,0,36,28.15c-.17,0-.43,0-.49-.14s.06-.36.11-.54a.3.3,0,0,0-.06-.31l-1-1.33a33.91,33.91,0,0,1-2.36-3.24,4.9,4.9,0,0,1-.72-1.77,14,14,0,0,1-.13-1.44,7.07,7.07,0,0,0-.63-2.71c-.24-.52-.49-1-.76-1.53a1.63,1.63,0,0,1-.13-1.33c.06-.2.13-.38.18-.57a.18.18,0,0,1,.2-.15l.76,0c.48,0,.6-.15.62-.62A1.6,1.6,0,0,1,32,11.3c.06-.07.11-.14.17-.2a.21.21,0,0,0,0-.31,1.53,1.53,0,0,1-.37-1.36c0-.35.08-.71.09-1.07a.9.9,0,0,0-.76-1.1,4.57,4.57,0,0,0-3,0,2.36,2.36,0,0,0-1.47,1.59,3.18,3.18,0,0,0,0,1.65c.14.59.29,1.18.43,1.77a.22.22,0,0,1,0,.22,7.83,7.83,0,0,1-1.81,1.54,1.72,1.72,0,0,0-.86,1.08c-.44,1.53-1,3-1.54,4.52A14.16,14.16,0,0,0,21.93,23a38.08,38.08,0,0,0-.14,4.27,11.31,11.31,0,0,0,.19,2.1c0,.18.09.27.29.26s.45,0,.68,0l1.1,0a1,1,0,0,1-.91.34l-.7-.07c-.1,0-.15,0-.16.12s-.07.32-.09.49a2.85,2.85,0,0,0,.6,2.2,1.21,1.21,0,0,0,1.86.12s.07-.11.16-.1.07.31.09.47a32.52,32.52,0,0,1,.31,5.12,4,4,0,0,1-.45,1.77,9.31,9.31,0,0,1-1,1.53,40.09,40.09,0,0,0-4.09,5.42c-1,.08-2,.2-3,.32q-2.5.3-5,.75l-2,.37C9.08,47.89,8.54,47.27,8,46.6a26.61,26.61,0,0,1-5.18-12A27,27,0,0,1,9.13,12.06,26.83,26.83,0,0,1,24.47,3a26,26,0,0,1,7.62-.48A27.12,27.12,0,0,1,50.6,11.72a27.46,27.46,0,0,1,6.82,20.87ZM24.72,46.7h0c.79-1,1.58-1.93,2.36-2.9a10.5,10.5,0,0,0,2.2-4.94.41.41,0,0,1,0-.07,2.91,2.91,0,0,1,.5.77,7,7,0,0,1,.52,2.09c.13,1.06.14,2.12.32,3.17.11.63.25,1.24.41,1.85h0c0,.12-.11.07-.17.07-1.59-.06-3.18,0-4.78,0l-1.22,0c-.06,0-.13,0-.18,0l.08,0ZM31,26.84l-1-.39c-.36-.13-.36-.13-.22-.49a10.42,10.42,0,0,0,.69-2.11c.09-.57.1-1.15.14-1.73a2.79,2.79,0,0,1,.12-.75C30.81,23.19,30.9,25,31,26.84Zm-.27-7.18c-.5-1.1-.91-2.25-1.36-3.37l-.28-.68a.81.81,0,0,1,.53.26,2.64,2.64,0,0,1,.59,1,9.72,9.72,0,0,1,.57,2.66C30.74,19.55,30.79,19.62,30.72,19.66Zm-1.61-5a1.64,1.64,0,0,1-.18.44c-.25-.35-.48-.69-.74-1.07a3.12,3.12,0,0,1,.73.24A.31.31,0,0,1,29.11,14.65Zm5.84,14c-.17.12-.34.24-.52.35a.19.19,0,0,0-.08.27,5.71,5.71,0,0,0,.21.58,2.16,2.16,0,0,1,0,1.84,1.14,1.14,0,0,1-.84.78l-1.4.34c-.08,0-.12,0-.15-.07-.25-.86-.61-1.68-.85-2.54a3,3,0,0,1,.09-1.93A11.38,11.38,0,0,1,32.05,27a8.93,8.93,0,0,0,.66.89,4.54,4.54,0,0,0,1,.91.28.28,0,0,0,.29,0c.43-.24.88-.47,1.33-.69A1,1,0,0,1,35,28.62Zm.5,2.24a1.32,1.32,0,0,0,.44,0c.25,0,.45-.15.47-.46a1.49,1.49,0,0,1,.63.79c0,.09,0,.11-.07.14l-1.62.56c0-.29,0-.55,0-.8S35.27,30.83,35.45,30.86ZM25.27,37.25c0-.92-.06-1.84-.15-2.76-.06-.52-.11-1-.22-1.55,0-.25-.12-.27-.31-.09a1.25,1.25,0,0,1-.76.33,1.21,1.21,0,0,1-1.1-.61,3,3,0,0,1-.42-2.41c0-.13.1-.17.22-.17s.39.05.59.07a1.1,1.1,0,0,0,.84-.22c.05,0,.11-.09.1-.16h0a1,1,0,0,1-.91.34l-.7-.07c-.1,0-.15,0-.16.12s-.07.32-.09.49a2.85,2.85,0,0,0,.6,2.2,1.21,1.21,0,0,0,1.86.12s.07-.11.16-.1.07.31.09.47a32.52,32.52,0,0,1,.31,5.12,4,4,0,0,1-.45,1.77,9.31,9.31,0,0,1-1,1.53,40.09,40.09,0,0,0-4.09,5.42v0a.55.55,0,0,0,.18-.22,26.67,26.67,0,0,1,1.6-2.33c.8-1,1.69-2,2.5-3.06A7.15,7.15,0,0,0,25,39.67,6,6,0,0,0,25.27,37.25Zm18.46-.37a.65.65,0,0,0,0-.13c-.57-1.51-1.08-3-1.62-4.57-.16-.47-.32-.95-.51-1.41a.73.73,0,0,0-.87-.52l-.26,0a22.47,22.47,0,0,0-2.3.67.32.32,0,0,1-.33-.06,2,2,0,0,1-.92-1.67A1.08,1.08,0,0,0,36,28.15c-.17,0-.43,0-.49-.14s.06-.36.11-.54a.3.3,0,0,0-.06-.31l-1-1.33a33.91,33.91,0,0,1-2.36-3.24,4.9,4.9,0,0,1-.72-1.77,14,14,0,0,1-.13-1.44,7.07,7.07,0,0,0-.63-2.71c-.24-.52-.49-1-.76-1.53a1.63,1.63,0,0,1-.13-1.33c.06-.2.13-.38.18-.57a.18.18,0,0,1,.2-.15l.76,0c.48,0,.6-.15.62-.62A1.6,1.6,0,0,1,32,11.3c.06-.07.11-.14.17-.2a.21.21,0,0,0,0-.31,1.53,1.53,0,0,1-.37-1.36c0-.35.08-.71.09-1.07a.9.9,0,0,0-.76-1.1,4.57,4.57,0,0,0-3,0,2.36,2.36,0,0,0-1.47,1.59,3.18,3.18,0,0,0,0,1.65c.14.59.29,1.18.43,1.77a.22.22,0,0,1,0,.22,7.83,7.83,0,0,1-1.81,1.54,1.72,1.72,0,0,0-.86,1.08c-.44,1.53-1,3-1.54,4.52A14.16,14.16,0,0,0,21.93,23a38.08,38.08,0,0,0-.14,4.27,11.31,11.31,0,0,0,.19,2.1c0,.18.09.27.29.26s.45,0,.68,0l1.1,0c0-.07-.1-.05-.16-.06h-.08c-.48,0-.95-.06-1.42-.05-.28,0-.31,0-.37-.31a14.32,14.32,0,0,1-.19-2.16c0-.84,0-1.67.05-2.5a13,13,0,0,1,.07-1.4,14.75,14.75,0,0,1,.64-2.78c.29-.89.63-1.76.95-2.64s.6-1.83.9-2.75a1.33,1.33,0,0,1,.64-.81A8.5,8.5,0,0,0,27,12.62a.35.35,0,0,0,.11-.36c-.09-.38-.19-.75-.28-1.13a4.51,4.51,0,0,1-.21-1.86,2.32,2.32,0,0,1,1.59-1.94,4.55,4.55,0,0,1,2.07-.2,3.43,3.43,0,0,1,1,.25.84.84,0,0,1,.54.85c0,.42-.07.84-.1,1.26A1.55,1.55,0,0,0,32,10.67c.22.28.22.29,0,.57a1.74,1.74,0,0,0-.46,1,2.26,2.26,0,0,1,0,.26c0,.29-.16.42-.46.46a6.79,6.79,0,0,1-.78,0,.3.3,0,0,0-.34.24c-.06.17-.11.34-.17.51a1.7,1.7,0,0,0,.12,1.36c.23.43.44.86.65,1.29a6.73,6.73,0,0,1,.67,2.18c.06.59.09,1.18.15,1.78a4.57,4.57,0,0,0,.55,1.83,20.12,20.12,0,0,0,1.38,2.07c.71.95,1.46,1.87,2.19,2.82a.49.49,0,0,1,.09.45l-.09.31a.18.18,0,0,0,.15.25l.32.07a1.05,1.05,0,0,1,.93,1c0,.06,0,.11,0,.16a2,2,0,0,0,.84,1.51.51.51,0,0,0,.54.09c.64-.21,1.28-.41,1.94-.58a2.42,2.42,0,0,1,.76-.07.57.57,0,0,1,.5.31c.09.19.18.38.25.57.24.73.5,1.44.75,2.16l1,2.75a6,6,0,0,1,.32.93.38.38,0,0,1-.25.5l-.34.16c-2.16.84-4.34,1.61-6.52,2.38l-2.34.8c-.25.08-.26.1-.2.36s.11.41.17.62l1.32,5a.35.35,0,0,0,.1.2,0,0,0,0,1,0,0,.14.14,0,0,0,0-.06c-.52-1.94-1-3.89-1.56-5.83,0-.13,0-.14.12-.16,1.07-.35,2.14-.72,3.2-1.09,2-.71,4-1.42,6-2.21C43.79,37.48,43.86,37.31,43.73,36.88Zm-18.46.37c0-.92-.06-1.84-.15-2.76-.06-.52-.11-1-.22-1.55,0-.25-.12-.27-.31-.09a1.25,1.25,0,0,1-.76.33,1.21,1.21,0,0,1-1.1-.61,3,3,0,0,1-.42-2.41c0-.13.1-.17.22-.17s.39.05.59.07a1.1,1.1,0,0,0,.84-.22c.05,0,.11-.09.1-.16h0a1,1,0,0,1-.91.34l-.7-.07c-.1,0-.15,0-.16.12s-.07.32-.09.49a2.85,2.85,0,0,0,.6,2.2,1.21,1.21,0,0,0,1.86.12s.07-.11.16-.1.07.31.09.47a32.52,32.52,0,0,1,.31,5.12,4,4,0,0,1-.45,1.77,9.31,9.31,0,0,1-1,1.53,40.09,40.09,0,0,0-4.09,5.42v0a.55.55,0,0,0,.18-.22,26.67,26.67,0,0,1,1.6-2.33c.8-1,1.69-2,2.5-3.06A7.15,7.15,0,0,0,25,39.67,6,6,0,0,0,25.27,37.25Zm18.46-.37a.65.65,0,0,0,0-.13c-.57-1.51-1.08-3-1.62-4.57-.16-.47-.32-.95-.51-1.41a.73.73,0,0,0-.87-.52l-.26,0a22.47,22.47,0,0,0-2.3.67.32.32,0,0,1-.33-.06,2,2,0,0,1-.92-1.67A1.08,1.08,0,0,0,36,28.15c-.17,0-.43,0-.49-.14s.06-.36.11-.54a.3.3,0,0,0-.06-.31l-1-1.33a33.91,33.91,0,0,1-2.36-3.24,4.9,4.9,0,0,1-.72-1.77,14,14,0,0,1-.13-1.44,7.07,7.07,0,0,0-.63-2.71c-.24-.52-.49-1-.76-1.53a1.63,1.63,0,0,1-.13-1.33c.06-.2.13-.38.18-.57a.18.18,0,0,1,.2-.15l.76,0c.48,0,.6-.15.62-.62A1.6,1.6,0,0,1,32,11.3c.06-.07.11-.14.17-.2a.21.21,0,0,0,0-.31,1.53,1.53,0,0,1-.37-1.36c0-.35.08-.71.09-1.07a.9.9,0,0,0-.76-1.1,4.57,4.57,0,0,0-3,0,2.36,2.36,0,0,0-1.47,1.59,3.18,3.18,0,0,0,0,1.65c.14.59.29,1.18.43,1.77a.22.22,0,0,1,0,.22,7.83,7.83,0,0,1-1.81,1.54,1.72,1.72,0,0,0-.86,1.08c-.44,1.53-1,3-1.54,4.52A14.16,14.16,0,0,0,21.93,23a38.08,38.08,0,0,0-.14,4.27,11.31,11.31,0,0,0,.19,2.1c0,.18.09.27.29.26s.45,0,.68,0l1.1,0c0-.07-.1-.05-.16-.06h-.08c-.48,0-.95-.06-1.42-.05-.28,0-.31,0-.37-.31a14.32,14.32,0,0,1-.19-2.16c0-.84,0-1.67.05-2.5a13,13,0,0,1,.07-1.4,14.75,14.75,0,0,1,.64-2.78c.29-.89.63-1.76.95-2.64s.6-1.83.9-2.75a1.33,1.33,0,0,1,.64-.81A8.5,8.5,0,0,0,27,12.62a.35.35,0,0,0,.11-.36c-.09-.38-.19-.75-.28-1.13a4.51,4.51,0,0,1-.21-1.86,2.32,2.32,0,0,1,1.59-1.94,4.55,4.55,0,0,1,2.07-.2,3.43,3.43,0,0,1,1,.25.84.84,0,0,1,.54.85c0,.42-.07.84-.1,1.26A1.55,1.55,0,0,0,32,10.67c.22.28.22.29,0,.57a1.74,1.74,0,0,0-.46,1,2.26,2.26,0,0,1,0,.26c0,.29-.16.42-.46.46a6.79,6.79,0,0,1-.78,0,.3.3,0,0,0-.34.24c-.06.17-.11.34-.17.51a1.7,1.7,0,0,0,.12,1.36c.23.43.44.86.65,1.29a6.73,6.73,0,0,1,.67,2.18c.06.59.09,1.18.15,1.78a4.57,4.57,0,0,0,.55,1.83,20.12,20.12,0,0,0,1.38,2.07c.71.95,1.46,1.87,2.19,2.82a.49.49,0,0,1,.09.45l-.09.31a.18.18,0,0,0,.15.25l.32.07a1.05,1.05,0,0,1,.93,1c0,.06,0,.11,0,.16a2,2,0,0,0,.84,1.51.51.51,0,0,0,.54.09c.64-.21,1.28-.41,1.94-.58a2.42,2.42,0,0,1,.76-.07.57.57,0,0,1,.5.31c.09.19.18.38.25.57.24.73.5,1.44.75,2.16l1,2.75a6,6,0,0,1,.32.93.38.38,0,0,1-.25.5l-.34.16c-2.16.84-4.34,1.61-6.52,2.38l-2.34.8c-.25.08-.26.1-.2.36s.11.41.17.62l1.32,5a.35.35,0,0,0,.1.2,0,0,0,0,1,0,0,.14.14,0,0,0,0-.06c-.52-1.94-1-3.89-1.56-5.83,0-.13,0-.14.12-.16,1.07-.35,2.14-.72,3.2-1.09,2-.71,4-1.42,6-2.21C43.79,37.48,43.86,37.31,43.73,36.88Zm-18.46.37c0-.92-.06-1.84-.15-2.76-.06-.52-.11-1-.22-1.55,0-.25-.12-.27-.31-.09a1.25,1.25,0,0,1-.76.33,1.21,1.21,0,0,1-1.1-.61,3,3,0,0,1-.42-2.41c0-.13.1-.17.22-.17s.39.05.59.07a1.1,1.1,0,0,0,.84-.22c.05,0,.11-.09.1-.16h0a1,1,0,0,1-.91.34l-.7-.07c-.1,0-.15,0-.16.12s-.07.32-.09.49a2.85,2.85,0,0,0,.6,2.2,1.21,1.21,0,0,0,1.86.12s.07-.11.16-.1.07.31.09.47a32.52,32.52,0,0,1,.31,5.12,4,4,0,0,1-.45,1.77,9.31,9.31,0,0,1-1,1.53,40.09,40.09,0,0,0-4.09,5.42v0a.55.55,0,0,0,.18-.22,26.67,26.67,0,0,1,1.6-2.33c.8-1,1.69-2,2.5-3.06A7.15,7.15,0,0,0,25,39.67,6,6,0,0,0,25.27,37.25Zm18.46-.37a.65.65,0,0,0,0-.13c-.57-1.51-1.08-3-1.62-4.57-.16-.47-.32-.95-.51-1.41a.73.73,0,0,0-.87-.52l-.26,0a22.47,22.47,0,0,0-2.3.67.32.32,0,0,1-.33-.06,2,2,0,0,1-.92-1.67A1.08,1.08,0,0,0,36,28.15c-.17,0-.43,0-.49-.14s.06-.36.11-.54a.3.3,0,0,0-.06-.31l-1-1.33a33.91,33.91,0,0,1-2.36-3.24,4.9,4.9,0,0,1-.72-1.77,14,14,0,0,1-.13-1.44,7.07,7.07,0,0,0-.63-2.71c-.24-.52-.49-1-.76-1.53a1.63,1.63,0,0,1-.13-1.33c.06-.2.13-.38.18-.57a.18.18,0,0,1,.2-.15l.76,0c.48,0,.6-.15.62-.62A1.6,1.6,0,0,1,32,11.3c.06-.07.11-.14.17-.2a.21.21,0,0,0,0-.31,1.53,1.53,0,0,1-.37-1.36c0-.35.08-.71.09-1.07a.9.9,0,0,0-.76-1.1,4.57,4.57,0,0,0-3,0,2.36,2.36,0,0,0-1.47,1.59,3.18,3.18,0,0,0,0,1.65c.14.59.29,1.18.43,1.77a.22.22,0,0,1,0,.22,7.83,7.83,0,0,1-1.81,1.54,1.72,1.72,0,0,0-.86,1.08c-.44,1.53-1,3-1.54,4.52A14.16,14.16,0,0,0,21.93,23a38.08,38.08,0,0,0-.14,4.27,11.31,11.31,0,0,0,.19,2.1c0,.18.09.27.29.26s.45,0,.68,0l1.1,0c0-.07-.1-.05-.16-.06h-.08c-.48,0-.95-.06-1.42-.05-.28,0-.31,0-.37-.31a14.32,14.32,0,0,1-.19-2.16c0-.84,0-1.67.05-2.5a13,13,0,0,1,.07-1.4,14.75,14.75,0,0,1,.64-2.78c.29-.89.63-1.76.95-2.64s.6-1.83.9-2.75a1.33,1.33,0,0,1,.64-.81A8.5,8.5,0,0,0,27,12.62a.35.35,0,0,0,.11-.36c-.09-.38-.19-.75-.28-1.13a4.51,4.51,0,0,1-.21-1.86,2.32,2.32,0,0,1,1.59-1.94,4.55,4.55,0,0,1,2.07-.2,3.43,3.43,0,0,1,1,.25.84.84,0,0,1,.54.85c0,.42-.07.84-.1,1.26A1.55,1.55,0,0,0,32,10.67c.22.28.22.29,0,.57a1.74,1.74,0,0,0-.46,1,2.26,2.26,0,0,1,0,.26c0,.29-.16.42-.46.46a6.79,6.79,0,0,1-.78,0,.3.3,0,0,0-.34.24c-.06.17-.11.34-.17.51a1.7,1.7,0,0,0,.12,1.36c.23.43.44.86.65,1.29a6.73,6.73,0,0,1,.67,2.18c.06.59.09,1.18.15,1.78a4.57,4.57,0,0,0,.55,1.83,20.12,20.12,0,0,0,1.38,2.07c.71.95,1.46,1.87,2.19,2.82a.49.49,0,0,1,.09.45l-.09.31a.18.18,0,0,0,.15.25l.32.07a1.05,1.05,0,0,1,.93,1c0,.06,0,.11,0,.16a2,2,0,0,0,.84,1.51.51.51,0,0,0,.54.09c.64-.21,1.28-.41,1.94-.58a2.42,2.42,0,0,1,.76-.07.57.57,0,0,1,.5.31c.09.19.18.38.25.57.24.73.5,1.44.75,2.16l1,2.75a6,6,0,0,1,.32.93.38.38,0,0,1-.25.5l-.34.16c-2.16.84-4.34,1.61-6.52,2.38l-2.34.8c-.25.08-.26.1-.2.36s.11.41.17.62l1.32,5a.35.35,0,0,0,.1.2,0,0,0,0,1,0,0,.14.14,0,0,0,0-.06c-.52-1.94-1-3.89-1.56-5.83,0-.13,0-.14.12-.16,1.07-.35,2.14-.72,3.2-1.09,2-.71,4-1.42,6-2.21C43.79,37.48,43.86,37.31,43.73,36.88Zm-18.46.37c0-.92-.06-1.84-.15-2.76-.06-.52-.11-1-.22-1.55,0-.25-.12-.27-.31-.09a1.25,1.25,0,0,1-.76.33,1.21,1.21,0,0,1-1.1-.61,3,3,0,0,1-.42-2.41c0-.13.1-.17.22-.17s.39.05.59.07a1.1,1.1,0,0,0,.84-.22c.05,0,.11-.09.1-.16h0a1,1,0,0,1-.91.34l-.7-.07c-.1,0-.15,0-.16.12s-.07.32-.09.49a2.85,2.85,0,0,0,.6,2.2,1.21,1.21,0,0,0,1.86.12s.07-.11.16-.1.07.31.09.47a32.52,32.52,0,0,1,.31,5.12,4,4,0,0,1-.45,1.77,9.31,9.31,0,0,1-1,1.53,40.09,40.09,0,0,0-4.09,5.42v0a.55.55,0,0,0,.18-.22,26.67,26.67,0,0,1,1.6-2.33c.8-1,1.69-2,2.5-3.06A7.15,7.15,0,0,0,25,39.67,6,6,0,0,0,25.27,37.25Zm18.46-.37a.65.65,0,0,0,0-.13c-.57-1.51-1.08-3-1.62-4.57-.16-.47-.32-.95-.51-1.41a.73.73,0,0,0-.87-.52l-.26,0a22.47,22.47,0,0,0-2.3.67.32.32,0,0,1-.33-.06,2,2,0,0,1-.92-1.67A1.08,1.08,0,0,0,36,28.15c-.17,0-.43,0-.49-.14s.06-.36.11-.54a.3.3,0,0,0-.06-.31l-1-1.33a33.91,33.91,0,0,1-2.36-3.24,4.9,4.9,0,0,1-.72-1.77,14,14,0,0,1-.13-1.44,7.07,7.07,0,0,0-.63-2.71c-.24-.52-.49-1-.76-1.53a1.63,1.63,0,0,1-.13-1.33c.06-.2.13-.38.18-.57a.18.18,0,0,1,.2-.15l.76,0c.48,0,.6-.15.62-.62A1.6,1.6,0,0,1,32,11.3c.06-.07.11-.14.17-.2a.21.21,0,0,0,0-.31,1.53,1.53,0,0,1-.37-1.36c0-.35.08-.71.09-1.07a.9.9,0,0,0-.76-1.1,4.57,4.57,0,0,0-3,0,2.36,2.36,0,0,0-1.47,1.59,3.18,3.18,0,0,0,0,1.65c.14.59.29,1.18.43,1.77a.22.22,0,0,1,0,.22,7.83,7.83,0,0,1-1.81,1.54,1.72,1.72,0,0,0-.86,1.08c-.44,1.53-1,3-1.54,4.52A14.16,14.16,0,0,0,21.93,23a38.08,38.08,0,0,0-.14,4.27,11.31,11.31,0,0,0,.19,2.1c0,.18.09.27.29.26s.45,0,.68,0l1.1,0c0-.07-.1-.05-.16-.06h-.08c-.48,0-.95-.06-1.42-.05-.28,0-.31,0-.37-.31a14.32,14.32,0,0,1-.19-2.16c0-.84,0-1.67.05-2.5a13,13,0,0,1,.07-1.4,14.75,14.75,0,0,1,.64-2.78c.29-.89.63-1.76.95-2.64s.6-1.83.9-2.75a1.33,1.33,0,0,1,.64-.81A8.5,8.5,0,0,0,27,12.62a.35.35,0,0,0,.11-.36c-.09-.38-.19-.75-.28-1.13a4.51,4.51,0,0,1-.21-1.86,2.32,2.32,0,0,1,1.59-1.94,4.55,4.55,0,0,1,2.07-.2,3.43,3.43,0,0,1,1,.25.84.84,0,0,1,.54.85c0,.42-.07.84-.1,1.26A1.55,1.55,0,0,0,32,10.67c.22.28.22.29,0,.57a1.74,1.74,0,0,0-.46,1,2.26,2.26,0,0,1,0,.26c0,.29-.16.42-.46.46a6.79,6.79,0,0,1-.78,0,.3.3,0,0,0-.34.24c-.06.17-.11.34-.17.51a1.7,1.7,0,0,0,.12,1.36c.23.43.44.86.65,1.29a6.73,6.73,0,0,1,.67,2.18c.06.59.09,1.18.15,1.78a4.57,4.57,0,0,0,.55,1.83,20.12,20.12,0,0,0,1.38,2.07c.71.95,1.46,1.87,2.19,2.82a.49.49,0,0,1,.09.45l-.09.31a.18.18,0,0,0,.15.25l.32.07a1.05,1.05,0,0,1,.93,1c0,.06,0,.11,0,.16a2,2,0,0,0,.84,1.51.51.51,0,0,0,.54.09c.64-.21,1.28-.41,1.94-.58a2.42,2.42,0,0,1,.76-.07.57.57,0,0,1,.5.31c.09.19.18.38.25.57.24.73.5,1.44.75,2.16l1,2.75a6,6,0,0,1,.32.93.38.38,0,0,1-.25.5l-.34.16c-2.16.84-4.34,1.61-6.52,2.38l-2.34.8c-.25.08-.26.1-.2.36s.11.41.17.62l1.32,5a.35.35,0,0,0,.1.2,0,0,0,0,1,0,0,.14.14,0,0,0,0-.06c-.52-1.94-1-3.89-1.56-5.83,0-.13,0-.14.12-.16,1.07-.35,2.14-.72,3.2-1.09,2-.71,4-1.42,6-2.21C43.79,37.48,43.86,37.31,43.73,36.88Z"/><path class="cls-3" d="M57.94,30.51v-1s0,0,0,0v1S58,30.52,57.94,30.51Z"/><path class="cls-4" d="M2.05,29.54v1s0,0,0,0v-1S2,29.52,2.05,29.54Z"/><path class="cls-5" d="M30.48,2h-.92s0,0,0,0h.93s0,0,0,0Z"/><rect class="cls-6" x="29.6" y="57.97" width="0.84" height="0.03"/><path class="cls-7" d="M57.94,30.51h0v.36C57.89,30.75,58,30.62,57.94,30.51Z"/><path class="cls-8" d="M2.05,29.54H2v-.32s0,0,0,0Z"/><path class="cls-9" d="M2,30.5h0c0,.11.06.23,0,.32Z"/><path class="cls-10" d="M29.56,2V2h-.28V2Z"/><path class="cls-11" d="M30.76,2h-.28V2h.28Z"/><path class="cls-12" d="M58,29.21v-.28s0,0,0,0v.28S58,29.24,58,29.21Z"/><path class="cls-13" d="M58,29.21h0v.28h0Z"/><path class="cls-14" d="M58,28.94h0c0-.08-.05-.17,0-.23Z"/><path class="cls-15" d="M58,31.23c0-.09,0-.17,0-.25v.25Z"/><rect class="cls-16" x="2.02" y="29.02" width="0.03" height="0.2"/><path class="cls-17" d="M58,31.22v.21h0c0-.07,0-.13,0-.19h0Z"/><path class="cls-1" d="M24.05,29.67h0c0,.07,0,.12-.1.16a1.1,1.1,0,0,1-.84.22c-.2,0-.39-.06-.59-.07s-.2,0-.22.17a3,3,0,0,0,.42,2.41,1.21,1.21,0,0,0,1.1.61,1.25,1.25,0,0,0,.76-.33c.19-.18.26-.16.31.09.11.51.16,1,.22,1.55.09.92.11,1.84.15,2.76A6,6,0,0,1,25,39.67a7.15,7.15,0,0,1-1.09,1.82c-.81,1-1.7,2-2.5,3.06a26.67,26.67,0,0,0-1.6,2.33.55.55,0,0,1-.18.22l0,0c-.52.09-1.05.12-1.57.17-.85.09-1.7.2-2.55.31-1.79.23-3.57.54-5.34.88l-.34.07c-.07,0-.14,0-.2,0l2-.37q2.51-.45,5-.75c1-.12,2-.24,3-.32a40.09,40.09,0,0,1,4.09-5.42,9.31,9.31,0,0,0,1-1.53,4,4,0,0,0,.45-1.77,32.52,32.52,0,0,0-.31-5.12c0-.16-.06-.32-.09-.47s-.12.06-.16.1a1.21,1.21,0,0,1-1.86-.12,2.85,2.85,0,0,1-.6-2.2c0-.17.06-.33.09-.49s.06-.13.16-.12l.7.07A1,1,0,0,0,24.05,29.67Z"/><path class="cls-1" d="M49.87,49.09c-.09.14-.21.08-.33,0-1-.27-2.12-.49-3.19-.7-2-.38-4.06-.69-6.1-.94-1.11-.14-2.22-.25-3.33-.35-.41,0-.83-.06-1.24-.11h0a.35.35,0,0,1-.1-.2l-1.32-5c-.06-.21-.12-.41-.17-.62s-.05-.28.2-.36l2.34-.8c2.18-.77,4.36-1.54,6.52-2.38l.34-.16a.38.38,0,0,0,.25-.5,6,6,0,0,0-.32-.93l-1-2.75c-.25-.72-.51-1.43-.75-2.16-.07-.19-.16-.38-.25-.57a.57.57,0,0,0-.5-.31,2.42,2.42,0,0,0-.76.07c-.66.17-1.3.37-1.94.58a.51.51,0,0,1-.54-.09,2,2,0,0,1-.84-1.51c0-.05,0-.1,0-.16a1.05,1.05,0,0,0-.93-1l-.32-.07a.18.18,0,0,1-.15-.25l.09-.31a.49.49,0,0,0-.09-.45c-.73-.95-1.48-1.87-2.19-2.82a20.12,20.12,0,0,1-1.38-2.07,4.57,4.57,0,0,1-.55-1.83c-.06-.6-.09-1.19-.15-1.78a6.73,6.73,0,0,0-.67-2.18c-.21-.43-.42-.86-.65-1.29a1.7,1.7,0,0,1-.12-1.36c.06-.17.11-.34.17-.51a.3.3,0,0,1,.34-.24A6.79,6.79,0,0,0,31,13c.3,0,.44-.17.46-.46a2.26,2.26,0,0,0,0-.26,1.74,1.74,0,0,1,.46-1c.24-.28.24-.29,0-.57a1.55,1.55,0,0,1-.27-1.18c0-.42.1-.84.1-1.26a.84.84,0,0,0-.54-.85,3.43,3.43,0,0,0-1-.25,4.55,4.55,0,0,0-2.07.2A2.32,2.32,0,0,0,26.6,9.27a4.51,4.51,0,0,0,.21,1.86c.09.38.19.75.28,1.13a.35.35,0,0,1-.11.36,8.5,8.5,0,0,1-1.9,1.59,1.33,1.33,0,0,0-.64.81c-.3.92-.57,1.84-.9,2.75s-.66,1.75-.95,2.64A14.75,14.75,0,0,0,22,23.19a13,13,0,0,0-.07,1.4c0,.83-.09,1.66-.05,2.5A14.32,14.32,0,0,0,22,29.25c.06.28.09.32.37.31.47,0,.94.05,1.42.05h.08c.06,0,.14,0,.16.06l-1.1,0c-.23,0-.46,0-.68,0s-.26-.08-.29-.26a11.31,11.31,0,0,1-.19-2.1A38.08,38.08,0,0,1,21.93,23a14.16,14.16,0,0,1,.86-3.31c.54-1.49,1.1-3,1.54-4.52a1.72,1.72,0,0,1,.86-1.08A7.83,7.83,0,0,0,27,12.53a.22.22,0,0,0,0-.22c-.14-.59-.29-1.18-.43-1.77a3.18,3.18,0,0,1,0-1.65A2.36,2.36,0,0,1,28.09,7.3a4.57,4.57,0,0,1,3,0,.9.9,0,0,1,.76,1.1c0,.36-.06.72-.09,1.07a1.53,1.53,0,0,0,.37,1.36.21.21,0,0,1,0,.31c-.06.06-.11.13-.17.2a1.6,1.6,0,0,0-.44,1.13c0,.47-.14.59-.62.62l-.76,0a.18.18,0,0,0-.2.15c-.05.19-.12.37-.18.57a1.63,1.63,0,0,0,.13,1.33c.27.5.52,1,.76,1.53a7.07,7.07,0,0,1,.63,2.71,14,14,0,0,0,.13,1.44,4.9,4.9,0,0,0,.72,1.77,33.91,33.91,0,0,0,2.36,3.24l1,1.33a.3.3,0,0,1,.06.31c-.05.18-.16.39-.11.54s.32.1.49.14a1.08,1.08,0,0,1,.91,1.07,2,2,0,0,0,.92,1.67.32.32,0,0,0,.33.06,22.47,22.47,0,0,1,2.3-.67l.26,0a.73.73,0,0,1,.87.52c.19.46.35.94.51,1.41.54,1.52,1,3.06,1.62,4.57a.65.65,0,0,1,0,.13c.13.43.06.6-.36.77-2,.79-4,1.5-6,2.21-1.06.37-2.13.74-3.2,1.09-.09,0-.15,0-.12.16.53,1.94,1,3.89,1.56,5.83a.14.14,0,0,1,0,.06c1.28.08,2.56.21,3.83.35,1.44.16,2.86.35,4.29.58,2,.32,3.93.69,5.87,1.17C49.72,49.12,49.8,49.15,49.87,49.09Z"/><path class="cls-18" d="M49.87,49.09c0,.09-.07.14-.13.19-.47.47-.94.93-1.44,1.37a29,29,0,0,1-2.48,1.94A27.88,27.88,0,0,1,41.76,55a27.19,27.19,0,0,1-4.62,1.69,28.41,28.41,0,0,1-3,.63c-.7.1-1.4.17-2.1.22a27.36,27.36,0,0,1-2.86.06c-.74,0-1.46-.07-2.19-.14a27.17,27.17,0,0,1-3.25-.53,26.1,26.1,0,0,1-4.63-1.51,26.81,26.81,0,0,1-3.74-2,33.38,33.38,0,0,1-2.89-2.11c-.48-.4-1-.82-1.41-1.24s-.86-.84-1.29-1.26c-.07-.06-.16-.13-.14-.25l2-.37q2.51-.45,5-.75c1-.12,2-.24,3-.32v0c0,.09,0,.15-.07.22-.32.57-.62,1.14-.89,1.73a.47.47,0,0,0,0,.4,2,2,0,0,0,1,1A4.5,4.5,0,0,1,21,51.66a5.11,5.11,0,0,0,.74.73,2,2,0,0,0,1.68.32,4,4,0,0,0,.59-.17c.2-.07.22-.12.12-.32a1.73,1.73,0,0,0-.52-.59l-.4-.28a1.11,1.11,0,0,1-.48-1.29,5.18,5.18,0,0,1,.46-1.17,14.5,14.5,0,0,1,1.3-2c0-.06.08-.13.16-.14h.06l-.08,0c.05.08.12,0,.18,0l1.22,0c1.6,0,3.19,0,4.78,0,.06,0,.15,0,.17-.07h0c.08,0,.08.09.1.16.28,1.18.62,2.34.94,3.5,0,.14.09.27.12.41a.3.3,0,0,0,.32.26c.21,0,.42,0,.62,0a.3.3,0,0,1,.29.26c.08.32.17.65.24,1a.3.3,0,0,0,.29.27,3.26,3.26,0,0,0,1.32-.07,4.72,4.72,0,0,1,1.59-.07,11.81,11.81,0,0,0,2.45,0A3.78,3.78,0,0,0,40.44,52c.17-.09.18-.15.08-.32a1.36,1.36,0,0,0-.52-.46,5.74,5.74,0,0,0-1.35-.43,8.81,8.81,0,0,1-1.6-.44,1.18,1.18,0,0,1-.79-.88c-.18-.77-.41-1.53-.61-2.29,0-.07,0-.14,0-.2a0,0,0,0,1,0,0c1.28.08,2.56.21,3.83.35,1.44.16,2.86.35,4.29.58,2,.32,3.93.69,5.87,1.17C49.72,49.12,49.8,49.15,49.87,49.09Z"/><path class="cls-2" d="M43.73,36.88a.65.65,0,0,0,0-.13c-.57-1.51-1.08-3-1.62-4.57-.16-.47-.32-.95-.51-1.41a.73.73,0,0,0-.87-.52l-.26,0a22.47,22.47,0,0,0-2.3.67.32.32,0,0,1-.33-.06,2,2,0,0,1-.92-1.67A1.08,1.08,0,0,0,36,28.15c-.17,0-.43,0-.49-.14s.06-.36.11-.54a.3.3,0,0,0-.06-.31l-1-1.33a33.91,33.91,0,0,1-2.36-3.24,4.9,4.9,0,0,1-.72-1.77,14,14,0,0,1-.13-1.44,7.07,7.07,0,0,0-.63-2.71c-.24-.52-.49-1-.76-1.53a1.63,1.63,0,0,1-.13-1.33c.06-.2.13-.38.18-.57a.18.18,0,0,1,.2-.15l.76,0c.48,0,.6-.15.62-.62A1.6,1.6,0,0,1,32,11.3c.06-.07.11-.14.17-.2a.21.21,0,0,0,0-.31,1.53,1.53,0,0,1-.37-1.36c0-.35.08-.71.09-1.07a.9.9,0,0,0-.76-1.1,4.57,4.57,0,0,0-3,0,2.36,2.36,0,0,0-1.47,1.59,3.18,3.18,0,0,0,0,1.65c.14.59.29,1.18.43,1.77a.22.22,0,0,1,0,.22,7.83,7.83,0,0,1-1.81,1.54,1.72,1.72,0,0,0-.86,1.08c-.44,1.53-1,3-1.54,4.52A14.16,14.16,0,0,0,21.93,23a38.08,38.08,0,0,0-.14,4.27,11.31,11.31,0,0,0,.19,2.1c0,.18.09.27.29.26s.45,0,.68,0l1.1,0a1,1,0,0,1-.91.34l-.7-.07c-.1,0-.15,0-.16.12s-.07.32-.09.49a2.85,2.85,0,0,0,.6,2.2,1.21,1.21,0,0,0,1.86.12s.07-.11.16-.1.07.31.09.47a32.52,32.52,0,0,1,.31,5.12,4,4,0,0,1-.45,1.77,9.31,9.31,0,0,1-1,1.53,40.09,40.09,0,0,0-4.09,5.42l0,0c-.34.64-.7,1.28-1,2,0,.08-.09.15,0,.24a2,2,0,0,0,.94,1.15A5.38,5.38,0,0,1,21.24,52a2.2,2.2,0,0,0,2.72.65c.4-.13.41-.18.19-.53l0,0a2.81,2.81,0,0,0-.85-.76,1,1,0,0,1-.51-1,3.34,3.34,0,0,1,.39-1.23,16.07,16.07,0,0,1,1.5-2.4l.08,0h-.06c.79-1,1.58-1.93,2.36-2.9a10.5,10.5,0,0,0,2.2-4.94.41.41,0,0,1,0-.07,2.91,2.91,0,0,1,.5.77,7,7,0,0,1,.52,2.09c.13,1.06.14,2.12.32,3.17.11.63.25,1.24.41,1.85h0c.16.6.31,1.21.48,1.81.21.8.44,1.59.66,2.38a.19.19,0,0,0,.17.16c.27,0,.55,0,.82.06.11,0,.17,0,.2.17.08.38.18.75.27,1.13a.22.22,0,0,0,.18.18,3.14,3.14,0,0,0,1.06,0,6.63,6.63,0,0,1,1.1-.17c.5,0,1,0,1.49.07a9.14,9.14,0,0,0,1.48,0A4,4,0,0,0,40.58,52c.1-.05.11-.11.06-.21a1.29,1.29,0,0,0-.43-.5,4.47,4.47,0,0,0-1.55-.54A10.08,10.08,0,0,1,37,50.33a1.05,1.05,0,0,1-.69-.73c-.11-.46-.24-.92-.36-1.39s-.21-.79-.31-1.18a0,0,0,0,0,0,0,.14.14,0,0,0,0-.06c-.52-1.94-1-3.89-1.56-5.83,0-.13,0-.14.12-.16,1.07-.35,2.14-.72,3.2-1.09,2-.71,4-1.42,6-2.21C43.79,37.48,43.86,37.31,43.73,36.88Zm-10-4.44-1.4.34c-.08,0-.12,0-.15-.07-.25-.86-.61-1.68-.85-2.54a3,3,0,0,1,.09-1.93A11.38,11.38,0,0,1,32.05,27a8.93,8.93,0,0,0,.66.89,4.54,4.54,0,0,0,1,.91.28.28,0,0,0,.29,0c.43-.24.88-.47,1.33-.69a1,1,0,0,1-.42.52c-.17.12-.34.24-.52.35a.19.19,0,0,0-.08.27,5.71,5.71,0,0,0,.21.58,2.16,2.16,0,0,1,0,1.84A1.14,1.14,0,0,1,33.73,32.44Zm1.52-1.37c0-.17,0-.24.2-.21a1.32,1.32,0,0,0,.44,0c.25,0,.45-.15.47-.46a1.49,1.49,0,0,1,.63.79c0,.09,0,.11-.07.14l-1.62.56C35.29,31.58,35.28,31.32,35.25,31.07ZM28.19,14a3.12,3.12,0,0,1,.73.24.31.31,0,0,1,.19.39,1.64,1.64,0,0,1-.18.44C28.68,14.74,28.45,14.4,28.19,14Zm.89,1.59a.81.81,0,0,1,.53.26,2.64,2.64,0,0,1,.59,1,9.72,9.72,0,0,1,.57,2.66c0,.05,0,.12-.05.16-.5-1.1-.91-2.25-1.36-3.37ZM30,26.45c-.36-.13-.36-.13-.22-.49a10.42,10.42,0,0,0,.69-2.11c.09-.57.1-1.15.14-1.73a2.79,2.79,0,0,1,.12-.75c.09,1.82.18,3.63.27,5.47Z"/><path class="cls-1" d="M31,46.67h0Zm-6.29,0h0l0,0,.08,0Z"/><path class="cls-1" d="M30.72,19.66c.07,0,0-.11.05-.16S30.83,19.63,30.72,19.66Z"/><path class="cls-19" d="M30.8,19.77c-.06,0-.07-.06-.08-.11s0-.11.05-.16A.48.48,0,0,1,30.8,19.77Z"/></svg>